<svg width="39" height="42" viewBox="0 0 39 42" fill="none" xmlns="http://www.w3.org/2000/svg">
<path d="M19.5003 13.5773H2.11731V38.3149H19.5003V13.5773Z" fill="#C0F9FF"/>
<path d="M36.8832 13.5773H19.5002V38.3149H36.8832V13.5773Z" fill="#97F7FC"/>
<path d="M38.2769 11.1167V17.9552C38.2769 19.9705 36.1746 21.6029 33.5828 21.6029C30.9911 21.6029 28.8883 19.9705 28.8883 17.9552V11.1167H38.2769Z" fill="#CE4141"/>
<path d="M28.8883 11.1167V17.9552C28.8883 19.9705 26.7865 21.6029 24.1948 21.6029C21.603 21.6029 19.5002 19.9705 19.5002 17.9552V11.1167H28.8883Z" fill="#D8D200"/>
<path d="M31.6489 2.87554L38.2768 11.1167H28.8883L25.9482 2.87554H31.6489Z" fill="#DC4844"/>
<path d="M25.9482 2.87554L28.8883 11.1167H19.5002V2.87554H25.9482Z" fill="#FFFF00"/>
<path d="M0.723633 11.1167V17.9552C0.723633 19.9705 2.82589 21.6029 5.41816 21.6029C8.01043 21.6029 10.1122 19.9705 10.1122 17.9552V11.1167H0.723633Z" fill="#D8D200"/>
<path d="M10.1122 11.1167V17.9552C10.1122 19.9705 12.2139 21.6029 14.8067 21.6029C17.3995 21.6029 19.5002 19.9705 19.5002 17.9552V11.1167H10.1122Z" fill="#CE4141"/>
<path d="M7.35156 2.87554L0.723633 11.1167H10.1122L13.0522 2.87554H7.35156Z" fill="#FFFF00"/>
<path d="M13.0522 2.87554L10.1122 11.1167H19.5002V2.87554H13.0522Z" fill="#DC4844"/>
<path d="M13.0522 0.84465H7.35156V2.87605H13.0522V0.84465Z" fill="#D8D200"/>
<path d="M19.5002 0.84465H13.0522V2.87605H19.5002V0.84465Z" fill="#CE4141"/>
<path d="M31.6489 0.84465H25.9482V2.87605H31.6489V0.84465Z" fill="#CE4141"/>
<path d="M25.9487 0.84465H19.5002V2.87605H25.9487V0.84465Z" fill="#D8D200"/>
<path d="M19.5002 37.9516H0.723633V40.8238H19.5002H38.2768V37.9516H19.5002Z" fill="#559AA5"/>
<path d="M19.5002 38.6386H0.919147C0.811094 38.6386 0.723145 38.726 0.723145 38.8346V40.575C0.723145 41.0921 1.14229 41.5113 1.65944 41.5113H37.3496C37.8612 41.5113 38.2763 41.0962 38.2763 40.5845V38.8346C38.2763 38.7265 38.1889 38.6386 38.0803 38.6386H19.4997H19.5002Z" fill="#66BECC"/>
<path d="M21.2447 22.5799H3.71393V33.5546H21.2447V22.5799Z" fill="#559AA5"/>
<path d="M33.5828 22.5799H24.7627V36.8328H33.5828V22.5799Z" fill="#559AA5"/>
<path d="M32.8255 30.418H25.5563V36.2051H32.8255V30.418Z" fill="#40747C"/>
<path d="M32.4616 30.7075H25.9201V35.9151H32.4616V30.7075Z" fill="#559AA5"/>
<path d="M32.8255 23.1287H25.5563V29.9567H32.8255V23.1287Z" fill="#40747C"/>
<path d="M4.59045 33.0058H20.3677V23.1287L4.59045 33.0058Z" fill="#BBD7DB"/>
<path d="M4.59045 23.1287V33.0058L20.3677 23.1287H4.59045Z" fill="#DDEBED"/>
<path d="M25.9201 23.4705V29.6144L32.4611 23.4705H25.9201Z" fill="#DDEBED"/>
<path d="M25.9201 29.6144H32.4611V23.4705L25.9201 29.6144Z" fill="#BBD7DB"/>
</svg>
