<svg width="34" height="20" viewBox="0 0 34 20" fill="none" xmlns="http://www.w3.org/2000/svg">
<path d="M3.02113 6.74294C3.89814 5.63321 4.73451 5.07682 5.53124 5.07682C5.9418 5.07682 6.29342 5.18505 6.5866 5.39897C6.88232 5.61288 7.11707 5.96704 7.29034 6.45941C7.41026 6.80239 7.46869 7.32931 7.46869 8.03813V11.3943C7.46869 11.8897 7.50731 12.2296 7.58556 12.4054C7.64399 12.5492 7.74206 12.66 7.8757 12.7423C8.0073 12.8211 8.25526 12.8622 8.61552 12.8622V13.1691H4.90778V12.8622H5.06377C5.41335 12.8622 5.65827 12.8033 5.79546 12.692C5.9357 12.5802 6.03275 12.4171 6.08661 12.1996C6.10846 12.1148 6.11913 11.8455 6.11913 11.3943V8.17532C6.11913 7.46091 6.03021 6.94212 5.8544 6.61743C5.67503 6.29529 5.37626 6.13421 4.95757 6.13421C4.31023 6.13421 3.66187 6.50616 3.02012 7.25004V11.3943C3.02012 11.9247 3.04806 12.253 3.10954 12.3785C3.18475 12.5462 3.29044 12.6686 3.42509 12.7448C3.55923 12.8211 3.83006 12.8627 4.23757 12.8627V13.1696H0.532877V12.8627H0.696999C1.07707 12.8627 1.33723 12.7596 1.47036 12.5578C1.60145 12.3526 1.66903 11.9664 1.66903 11.3948V8.47461C1.66903 7.53205 1.64921 6.95737 1.60805 6.75259C1.56842 6.54477 1.5044 6.40453 1.42005 6.33136C1.33672 6.25769 1.22189 6.21958 1.07961 6.21958C0.928701 6.21958 0.744762 6.26429 0.532877 6.34864L0.409912 6.03818L2.6685 5.07784H3.02012V6.74396L3.02113 6.74294Z" fill="white"/>
<path d="M11.6033 6.75158C12.1505 6.1774 12.4717 5.84966 12.5692 5.76481C12.8157 5.54479 13.0799 5.37762 13.3619 5.25771C13.6474 5.13728 13.9264 5.07631 14.2054 5.07631C14.6744 5.07631 15.0793 5.22011 15.4167 5.50719C15.7546 5.79123 15.9812 6.20687 16.0956 6.75158C16.657 6.06308 17.1311 5.61237 17.5193 5.39846C17.9045 5.18454 18.3038 5.07631 18.7114 5.07631C19.1189 5.07631 19.4624 5.18454 19.7723 5.39846C20.0792 5.61237 20.3221 5.96399 20.504 6.44975C20.6239 6.78054 20.6823 7.30187 20.6823 8.01069V11.3937C20.6823 11.8861 20.7189 12.223 20.7896 12.4049C20.8449 12.5304 20.9456 12.6391 21.0929 12.727C21.2413 12.815 21.4791 12.8617 21.8139 12.8617V13.1686H18.1138V12.8617H18.2708C18.5919 12.8617 18.843 12.7941 19.0238 12.662C19.1499 12.5711 19.2388 12.4242 19.2921 12.226C19.3145 12.129 19.3257 11.8511 19.3257 11.3937V8.01069C19.3257 7.36996 19.2535 6.91824 19.1051 6.65503C18.8933 6.28868 18.5528 6.10728 18.0828 6.10728C17.7927 6.10728 17.502 6.1835 17.2119 6.33238C16.9187 6.48481 16.5671 6.76631 16.1509 7.17941L16.1342 7.27291L16.1509 7.6418V11.3937C16.1509 11.9303 16.1814 12.2642 16.2373 12.3963C16.2963 12.5279 16.4025 12.6391 16.5615 12.727C16.718 12.815 16.9888 12.8617 17.3714 12.8617V13.1686H13.5824V12.8617C13.9991 12.8617 14.2831 12.8083 14.4401 12.7062C14.5936 12.6036 14.7023 12.4481 14.7612 12.2433C14.7887 12.1437 14.8024 11.8622 14.8024 11.3937V8.01069C14.8024 7.36996 14.7135 6.9096 14.5316 6.63166C14.2912 6.26531 13.9564 6.08086 13.527 6.08086C13.2303 6.08086 12.9401 6.16317 12.65 6.33034C12.1973 6.58186 11.8487 6.8659 11.6028 7.17992V11.3943C11.6028 11.9075 11.6394 12.2438 11.7054 12.3968C11.773 12.5512 11.8761 12.6686 12.0072 12.7448C12.1419 12.821 12.4127 12.8627 12.8233 12.8627V13.1696H9.11757V12.8627C9.46106 12.8627 9.7014 12.8216 9.83809 12.7448C9.97172 12.6686 10.0784 12.5462 10.148 12.3759C10.2176 12.2057 10.2542 11.8805 10.2542 11.3943V8.38924C10.2542 7.52493 10.2293 6.96905 10.1811 6.71702C10.1419 6.52648 10.0805 6.39742 9.99967 6.3278C9.91939 6.25464 9.80709 6.21907 9.66482 6.21907C9.51086 6.21907 9.32946 6.26378 9.11707 6.34813L8.99512 6.03767L11.2512 5.07732H11.6023V6.75259L11.6033 6.75158Z" fill="white"/>
<path d="M26.0043 11.3241L27.6156 7.64231L27.1913 6.48532C27.0597 6.14285 26.8895 5.90556 26.6756 5.77396C26.5551 5.69164 26.3316 5.6449 26.0049 5.62762V5.30801H29.5734V5.62762C29.1796 5.6454 28.9006 5.71807 28.738 5.85018C28.6293 5.94113 28.5734 6.08747 28.5734 6.28665C28.5734 6.40098 28.5958 6.51835 28.641 6.63776L30.3406 11.1544L31.9183 6.80188C32.0271 6.49396 32.083 6.24803 32.083 6.06359C32.083 5.95586 32.0301 5.85881 31.9234 5.77396C31.8177 5.68605 31.6084 5.63931 31.2989 5.62762V5.30801H33.6602V5.62762C33.1861 5.7013 32.8365 6.03767 32.614 6.63776L30.112 13.41H29.7771L27.9037 8.38975L25.8148 13.2382L26.0049 11.3252L26.0043 11.3241Z" fill="white"/>
<path fill-rule="evenodd" clip-rule="evenodd" d="M22.5436 5.88524C22.6752 3.59108 23.447 1.93004 24.4521 0.497658C23.0004 3.63885 22.9826 6.41978 24.9063 8.75102C26.9764 11.7281 27.924 14.2489 27.3758 19.1807C27.5094 15.8276 25.7117 13.0248 23.9287 10.5228C23.0055 9.05742 22.5441 7.51172 22.5441 5.88524" fill="white"/>
</svg>
