<svg width="30" height="30" viewBox="0 0 37 48" fill="none" xmlns="http://www.w3.org/2000/svg">
<path d="M36.1631 12.9155L30.561 36.5062L29.8237 39.6106L28.6839 44.4086C28.1396 46.6969 25.8443 48.1116 23.5556 47.5678L3.9965 42.9235C1.70829 42.3793 0.293546 40.084 0.837329 37.7953L6.74054 12.9371L8.31661 6.30211C8.37792 6.0463 8.46085 5.80004 8.56287 5.56735C9.37402 3.7214 11.4109 2.65997 13.4433 3.14294L33.0025 7.78721C35.2907 8.33149 36.7054 10.6267 36.1626 12.9155H36.1631Z" fill="#DC4844"/>
<g opacity="0.3">
<path opacity="0.3" d="M36.126 12.8059L30.5253 36.3956L29.7885 39.5L28.6477 44.2986C28.1044 46.5873 25.8077 48.001 23.5189 47.4578L3.96034 42.814C2.61495 42.4928 1.5701 41.5676 1.04944 40.3936C1.13588 40.4931 1.22685 40.5891 1.32284 40.6801C1.17508 40.2383 1.24393 39.8624 1.24393 39.8624C5.31326 38.8799 4.96598 30.9226 4.96598 30.9226L9.78867 38.3114L23.8104 41.5857L9.37254 39.402C7.96684 41.3902 5.77161 41.9003 4.42522 42.0159L22.837 46.3873C25.1257 46.9306 27.4224 45.5168 27.9657 43.2281L29.1065 38.4295L29.8433 35.3252L35.444 11.7354C35.6681 10.7931 35.5601 9.85077 35.1967 9.02907C36.0652 10.0307 36.4547 11.4193 36.1255 12.8064L36.126 12.8059Z" fill="black"/>
</g>
<g opacity="0.55">
<path opacity="0.55" d="M35.7772 9.81559C35.2193 9.19893 34.476 8.73807 33.6056 8.53151L14.045 3.88624C11.7572 3.34296 9.46099 4.7577 8.91771 7.04641L1.43843 38.5391C1.17659 39.6417 1.36958 40.7469 1.89628 41.6555C0.987122 40.6509 0.571998 39.2296 0.908721 37.8129L8.388 6.31869C8.93128 4.03048 11.2265 2.61624 13.5147 3.15952L33.0743 7.80479C34.2604 8.08623 35.2103 8.83858 35.7767 9.81559H35.7772Z" fill="white"/>
</g>
<path d="M10.9285 7.33188L5.3067 31.004L9.63837 38.1044L25.3478 41.835C25.9539 41.9787 26.5615 41.6043 26.7052 40.9987L33.4317 12.6762L10.9285 7.33188Z" fill="white"/>
<path d="M25.6106 41.9149C25.5192 41.9149 25.4277 41.9043 25.3367 41.8827L9.60772 38.1471L5.25494 31.0121L5.25947 30.9925L10.8923 7.27308L10.9395 7.28414L33.49 12.6395L33.4789 12.6868L26.7525 41.0093C26.6801 41.3148 26.4926 41.5741 26.2253 41.739C26.0373 41.8546 25.8257 41.9144 25.6106 41.9144V41.9149ZM9.66954 38.0617L25.3593 41.7877C25.6398 41.8541 25.9293 41.8078 26.1745 41.6566C26.4198 41.5053 26.5916 41.2676 26.658 40.9876L33.3729 12.7124L10.9647 7.39068L5.35847 30.996L9.66954 38.0622V38.0617Z" fill="black"/>
<path d="M25.6111 42.2169C25.4965 42.2169 25.3809 42.2034 25.2668 42.1762L9.55744 38.4456C9.46647 38.424 9.38807 38.3672 9.33932 38.2873L5.00765 31.187C4.9594 31.1081 4.94433 31.0136 4.96594 30.9236L10.5877 7.25147C10.6093 7.161 10.6656 7.0831 10.745 7.03435C10.8239 6.98561 10.9194 6.97003 11.0099 6.99164L33.513 12.336C33.6035 12.3576 33.6819 12.4139 33.7307 12.4933C33.7794 12.5727 33.795 12.6677 33.7734 12.7581L27.047 41.0806C26.956 41.4646 26.7203 41.7902 26.3846 41.9973C26.1484 42.1425 25.8825 42.2174 25.6121 42.2174L25.6111 42.2169ZM9.86149 37.7973L25.4287 41.4942C25.6307 41.542 25.8393 41.5088 26.0157 41.3997C26.1921 41.2907 26.3162 41.1198 26.364 40.9178L33.0095 12.9361L11.1883 7.75354L5.68059 30.9442L9.86149 37.7968V37.7973Z" fill="black"/>
<path d="M9.63839 38.4451C9.52078 38.4451 9.41022 38.3843 9.3474 38.2818L5.01573 31.1814C4.94386 31.0638 4.94989 30.9151 5.0308 30.8035C5.11172 30.6924 5.25143 30.6407 5.38512 30.6723L9.57205 31.6669C10.0641 31.7835 10.4807 32.0851 10.7461 32.5158C11.0114 32.946 11.0928 33.4541 10.9762 33.9461L9.97008 38.1838C9.93842 38.318 9.82836 38.42 9.69216 38.4416C9.67407 38.4446 9.65648 38.4456 9.63889 38.4456L9.63839 38.4451ZM6.02338 31.5242L9.49817 37.2204L10.3133 33.7883C10.3882 33.4737 10.336 33.1485 10.1661 32.8731C9.99622 32.5977 9.72935 32.4047 9.41474 32.3298L6.02338 31.5242Z" fill="black"/>
<g opacity="0.3">
<path opacity="0.3" d="M5.26149 31.0493L9.59316 38.1496L10.5993 33.9119C10.7973 33.0782 10.2817 32.2414 9.44792 32.0434L5.26099 31.0488L5.26149 31.0493Z" fill="#262F6A"/>
<path opacity="0.3" d="M9.61323 38.2763L5.15894 30.9749L9.45945 31.9961C9.87558 32.0951 10.2279 32.3499 10.4525 32.7138C10.6767 33.0776 10.746 33.5073 10.647 33.9235L9.61323 38.2763ZM5.36348 31.1236L9.57303 38.0235L10.552 33.9009C10.645 33.5104 10.5802 33.1068 10.3691 32.765C10.1585 32.4233 9.82733 32.1836 9.43683 32.0911L5.36348 31.1236Z" fill="black"/>
</g>
<g opacity="0.3">
<path opacity="0.3" d="M13.3353 36.0298L12.6724 38.822L11.2335 38.4718L9.72632 38.1049L10.0756 36.5756L10.7083 33.8119L12.1834 34.1622C13.0177 34.3597 13.5338 35.196 13.3353 36.0303V36.0298Z" fill="black"/>
</g>
<g opacity="0.3">
<path opacity="0.3" d="M10.2076 10.369L32.6093 15.6893L33.1379 13.4635L10.7362 8.1432L10.2076 10.369Z" fill="black"/>
</g>
<path d="M34.0689 10.8403C33.5854 10.0548 32.8019 9.45373 31.8329 9.22355L29.5643 8.6848C26.863 8.04301 25.891 6.76195 26.1267 3.83246C26.3278 2.56899 25.5237 1.34473 24.2582 1.04419C23.057 0.758728 21.8529 1.40453 21.4016 2.51271C21.399 2.51823 21.3965 2.52477 21.394 2.5303C20.2793 5.38692 18.8314 6.13575 16.0773 5.4819L13.8434 4.95119C11.906 4.49083 9.96352 5.68846 9.50366 7.62537L34.5066 13.5633C34.7368 12.5948 34.5524 11.6248 34.0689 10.8403ZM23.2601 5.31153C22.6143 5.15825 22.2152 4.51093 22.3685 3.86513C22.5218 3.21932 23.1691 2.82028 23.8149 2.97356C24.4607 3.12685 24.8598 3.77416 24.7065 4.41997C24.5532 5.06577 23.9059 5.46482 23.2601 5.31153Z" fill="#B5B4BF"/>
<path d="M34.5428 13.6221L34.4956 13.611L9.44537 7.66206L9.45643 7.61482C9.92181 5.65479 11.8949 4.43907 13.8549 4.90445L16.0889 5.43517C18.8369 6.08801 20.2627 5.29595 21.3488 2.51321L21.3568 2.49411C21.8278 1.3382 23.053 0.707972 24.2697 0.997454C25.5438 1.3 26.3806 2.54889 26.175 3.84051C25.9458 6.69361 26.867 7.99477 29.5754 8.63806L31.844 9.17682C32.7944 9.40247 33.599 9.98445 34.1101 10.8157C34.6217 11.646 34.7795 12.626 34.5539 13.5753L34.5428 13.6226V13.6221ZM9.56298 7.58969L34.4705 13.505C34.6735 12.5958 34.5172 11.6605 34.0272 10.866C33.5296 10.0568 32.7461 9.49042 31.8214 9.2708L29.5528 8.73204C26.7851 8.07468 25.8433 6.74588 26.078 3.82844C26.276 2.58307 25.4719 1.38242 24.2466 1.09143C23.0962 0.818538 21.8921 1.4367 21.4463 2.5308L21.4388 2.5494C20.3311 5.38793 18.8746 6.19606 16.0663 5.52915L13.8323 4.99843C11.9406 4.54913 10.0359 5.70957 9.56247 7.58919L9.56298 7.58969ZM23.5375 5.39295C23.442 5.39295 23.3455 5.38189 23.2485 5.35878C22.9234 5.28138 22.6479 5.08236 22.4731 4.79841C22.2982 4.51445 22.2439 4.17874 22.3213 3.85357C22.4806 3.18264 23.1555 2.76651 23.8265 2.92582C24.4969 3.08514 24.913 3.7606 24.7537 4.43103C24.6175 5.00496 24.1034 5.39245 23.5375 5.39245V5.39295ZM23.5375 2.98965C23.0158 2.98965 22.5414 3.34698 22.4158 3.87619C22.3444 4.17572 22.3941 4.48531 22.556 4.74765C22.7173 5.00999 22.9716 5.19343 23.2711 5.26429C23.8893 5.41155 24.5125 5.02758 24.6592 4.40891C24.806 3.79025 24.4225 3.16806 23.8039 3.02081C23.7149 2.9997 23.6254 2.98965 23.5375 2.98965Z" fill="black"/>
<g opacity="0.55">
<path opacity="0.55" d="M24.6432 3.67516C24.7402 3.90333 24.7678 4.16215 24.7065 4.42048C24.5532 5.06628 23.9059 5.46533 23.2601 5.31154C23.1239 5.27937 22.9978 5.22409 22.8857 5.15273C23.0304 5.49246 23.3285 5.76134 23.7149 5.85281C24.3607 6.00609 25.008 5.60755 25.1613 4.96175C25.2825 4.45214 25.0603 3.94203 24.6432 3.67516ZM24.2582 1.0442C23.0561 0.758736 21.8524 1.40454 21.4011 2.51271C21.3986 2.51824 21.3961 2.52477 21.3941 2.5298C20.2793 5.38692 18.8314 6.13576 16.0773 5.48191L13.8439 4.9517C11.907 4.49184 9.96455 5.68947 9.5047 7.62538L10.0817 7.76258C10.6983 6.0669 12.501 5.06628 14.2997 5.49347L16.5332 6.02368C19.2868 6.67753 20.7342 5.9287 21.8489 3.07258C21.8514 3.06605 21.8549 3.06001 21.8569 3.05449C22.3082 1.94581 23.5119 1.30101 24.713 1.58647C25.1262 1.68447 25.4895 1.88098 25.785 2.14533C25.4538 1.6106 24.9196 1.2015 24.2582 1.0442Z" fill="white"/>
</g>
<path d="M34.5071 13.9045C34.481 13.9045 34.4544 13.9015 34.4282 13.895L9.42527 7.95708C9.24233 7.91335 9.12925 7.72991 9.17248 7.54698C9.41572 6.52173 10.0439 5.65278 10.941 5.09995C11.8381 4.54712 12.897 4.37675 13.9228 4.62L16.1567 5.15071C17.488 5.46683 18.4515 5.42663 19.1872 5.02407C19.9406 4.61196 20.5407 3.7802 21.0769 2.40667C21.0779 2.40416 21.0789 2.40114 21.0804 2.39863L21.0865 2.38405C21.3367 1.76941 21.8006 1.26181 22.3916 0.953733C22.9897 0.64264 23.6807 0.5567 24.3371 0.713C25.0311 0.877844 25.6307 1.29548 26.0262 1.88852C26.4167 2.47502 26.5725 3.17862 26.4655 3.87267C26.3549 5.26882 26.5313 6.23677 27.0208 6.91776C27.5013 7.58668 28.3346 8.04251 29.6427 8.35361L31.9114 8.89236C32.9376 9.13611 33.8066 9.76433 34.3589 10.6619C34.9117 11.559 35.0816 12.6174 34.8383 13.6427C34.8011 13.7995 34.6614 13.9045 34.5071 13.9045ZM9.93136 7.37711L34.2368 13.1497C34.3338 12.4094 34.1754 11.664 33.7784 11.0198C33.3221 10.2775 32.6029 9.75729 31.7536 9.55576L29.4849 9.017C26.5776 8.32647 25.5402 6.86549 25.7865 3.80583C25.787 3.79678 25.788 3.78824 25.7895 3.7797C25.8735 3.25149 25.7559 2.71424 25.4583 2.26695C25.1588 1.81765 24.7045 1.50154 24.1788 1.3764C23.6812 1.25829 23.1581 1.32312 22.7052 1.55883C22.2569 1.79202 21.9056 2.17699 21.7162 2.64187C21.7162 2.64288 21.7152 2.64439 21.7147 2.64539L21.7096 2.65745C21.1126 4.18728 20.4145 5.1291 19.5134 5.62213C18.6208 6.11063 17.5036 6.17144 15.9984 5.81411L13.7645 5.28339C12.1256 4.8939 10.4761 5.82114 9.93086 7.37711H9.93136Z" fill="black"/>
<path d="M23.5411 5.68545C23.4214 5.68545 23.3008 5.67138 23.1817 5.64324C22.7807 5.54825 22.4409 5.30249 22.2248 4.9517C22.0087 4.6009 21.9424 4.18728 22.0374 3.78623C22.2339 2.959 23.0666 2.44587 23.8944 2.64188C24.2954 2.73686 24.6352 2.98262 24.8513 3.33341C25.0674 3.68421 25.1337 4.09783 25.0387 4.49888C24.9437 4.89993 24.698 5.23967 24.3472 5.45578C24.1009 5.60755 23.8235 5.68545 23.5411 5.68545ZM23.538 3.28165C23.1485 3.28165 22.7942 3.54852 22.7008 3.94354C22.6475 4.16718 22.6847 4.39837 22.8053 4.59387C22.9259 4.78937 23.1154 4.92657 23.3395 4.97984C23.5632 5.03311 23.7944 4.99592 23.9899 4.87531C24.1854 4.75469 24.3226 4.56522 24.3758 4.34107C24.4291 4.11743 24.3919 3.88624 24.2713 3.69074C24.1507 3.49524 23.9612 3.35804 23.7371 3.30477C23.6707 3.28919 23.6039 3.28115 23.538 3.28115V3.28165Z" fill="black"/>
<g opacity="0.25">
<path opacity="0.25" d="M25.6353 9.22959C25.5473 9.59999 24.0974 9.57335 22.3977 9.16978C20.6975 8.76622 19.3908 8.138 19.4787 7.76761C19.5667 7.39721 20.9452 7.72388 22.6454 8.12795C24.3457 8.53152 25.7237 8.8592 25.6358 9.23009L25.6353 9.22959Z" fill="white"/>
</g>
<path d="M29.4905 20.9481C29.4644 20.9481 29.4377 20.945 29.4116 20.9385L17.5951 18.1322C17.4122 18.0884 17.2991 17.905 17.3423 17.7221C17.3861 17.5391 17.5695 17.4255 17.7524 17.4693L29.5689 20.2756C29.7518 20.3193 29.8649 20.5028 29.8217 20.6857C29.7845 20.8425 29.6448 20.9476 29.4905 20.9476V20.9481Z" fill="black"/>
<path d="M21.3317 30.0456C21.3056 30.0456 21.2789 30.0426 21.2528 30.0361L9.43632 27.2297C9.25338 27.186 9.1403 27.0026 9.18352 26.8196C9.22725 26.6367 9.41069 26.5231 9.59362 26.5668L21.4101 29.3732C21.593 29.4169 21.7061 29.6004 21.6629 29.7833C21.6257 29.9401 21.486 30.0451 21.3317 30.0451V30.0456Z" fill="black"/>
<path d="M28.8024 24.6761C28.7758 24.6761 28.7487 24.6731 28.722 24.6666L11.1406 20.4033C10.9576 20.3591 10.8455 20.1746 10.8898 19.9917C10.934 19.8087 11.1184 19.6967 11.3014 19.7409L28.8829 24.0042C29.0658 24.0484 29.1779 24.2329 29.1336 24.4158C29.096 24.5716 28.9562 24.6761 28.803 24.6761H28.8024Z" fill="black"/>
<path d="M27.8697 28.3017C27.8431 28.3017 27.8159 28.2987 27.7893 28.2922L10.2078 24.0288C10.0249 23.9846 9.9128 23.8002 9.95703 23.6172C10.0013 23.4343 10.1857 23.3222 10.3686 23.3664L27.9501 27.6298C28.1331 27.674 28.2451 27.8584 28.2009 28.0414C28.1632 28.1972 28.0235 28.3017 27.8702 28.3017H27.8697Z" fill="black"/>
<path d="M16.4045 17.8824L15.1194 17.5773C14.9847 17.5451 14.85 17.6286 14.8179 17.7633L14.5254 18.9946C14.4932 19.1293 14.3585 19.2122 14.2238 19.1805L12.7779 18.8373C12.6432 18.8051 12.5603 18.6704 12.592 18.5357L12.8845 17.3044C12.9166 17.1697 12.8332 17.035 12.6985 17.0029L11.4135 16.6978C11.2788 16.6656 11.1958 16.531 11.2275 16.3963L11.5456 15.0574C11.5778 14.9227 11.7125 14.8398 11.8472 14.8715L13.1323 15.1765C13.2669 15.2087 13.4016 15.1253 13.4338 14.9906L13.7263 13.7593C13.7585 13.6246 13.8931 13.5417 14.0278 13.5733L15.4737 13.9166C15.6084 13.9487 15.6913 14.0834 15.6597 14.2181L15.3672 15.4494C15.335 15.5841 15.4185 15.7188 15.5531 15.751L16.8382 16.056C16.9729 16.0882 17.0558 16.2229 17.0242 16.3576L16.706 17.6964C16.6739 17.8311 16.5392 17.914 16.4045 17.8824Z" fill="#4CDB45"/>
</svg>
