<svg width="45" height="43" viewBox="0 0 45 43" fill="none" xmlns="http://www.w3.org/2000/svg">
<path d="M41.4176 37.083L7.58843 42.8666C5.72589 43.1852 3.94126 41.9218 3.62313 40.0592C3.62313 40.0592 0.310175 5.80492 3.33063 5.28878C3.33063 5.28878 38.864 1.7572 39.3801 4.77766L44.2254 33.1177C44.5441 34.9802 43.2806 36.7649 41.4181 37.083H41.4176Z" fill="#C8C8C8"/>
<path d="M39.5003 38.2982L5.3364 41.5695C3.45528 41.7494 1.76915 40.3578 1.58872 38.4771C1.58872 38.4771 0.813254 4.07205 3.86336 3.78005C3.86336 3.78005 39.5606 2.88045 39.8526 5.93106L42.5931 34.5515C42.773 36.4327 41.3814 38.1188 39.5008 38.2992L39.5003 38.2982Z" fill="#EDEDED"/>
<path d="M4.27248 37.0709L35.1701 41.569C37.0513 41.7489 38.7374 40.3573 38.9178 38.4766C38.9178 38.4766 39.6933 4.07155 36.6432 3.77956C36.6432 3.77956 6.08476 2.99906 5.79277 6.04917L2.58334 32.1734C2.40342 34.0545 2.39136 36.8915 4.27248 37.0715V37.0709Z" fill="#EDEDED"/>
<path d="M38.4816 39.2179H4.16141C2.27174 39.2179 0.72583 37.672 0.72583 35.7823V7.61368C0.72583 4.54949 3.23266 2.04266 6.29684 2.04266H36.3461C39.4103 2.04266 41.9172 4.54949 41.9172 7.61368V35.7818C41.9172 37.6715 40.3712 39.2174 38.4816 39.2174V39.2179Z" fill="white"/>
<path d="M41.9172 11.7046H0.72583V7.61368C0.72583 4.54949 3.23266 2.04266 6.29684 2.04266H36.3461C39.4103 2.04266 41.9172 4.54949 41.9172 7.61368V11.7046Z" fill="#DC4844"/>
<path d="M7.42916 4.85355C6.9683 4.85355 6.59137 4.47662 6.59137 4.01576V2.04216H8.26695V4.01576C8.26695 4.47662 7.89002 4.85355 7.42916 4.85355Z" fill="#BF3A37"/>
<path d="M17.3449 4.85355C16.884 4.85355 16.5071 4.47662 16.5071 4.01576V2.04216H18.1827V4.01576C18.1827 4.47662 17.8057 4.85355 17.3449 4.85355Z" fill="#BF3A37"/>
<path d="M26.6189 4.85355C26.158 4.85355 25.7811 4.47662 25.7811 4.01576V2.04216H27.4566V4.01576C27.4566 4.47662 27.0797 4.85355 26.6189 4.85355Z" fill="#BF3A37"/>
<path d="M35.9581 4.85356C35.4973 4.85356 35.1204 4.47663 35.1204 4.01577V2.04217C35.1204 1.90949 36.7959 2.06026 36.7959 2.06026V4.01577C36.7959 4.47663 36.419 4.85356 35.9581 4.85356Z" fill="#BF3A37"/>
<path d="M17.8515 1.57377C17.8515 1.11107 17.4764 0.735977 17.0137 0.735977C16.551 0.735977 16.1759 1.11107 16.1759 1.57377V3.73382C16.1759 4.19652 16.551 4.57161 17.0137 4.57161C17.4764 4.57161 17.8515 4.19652 17.8515 3.73382V1.57377Z" fill="#EBEBEB"/>
<path d="M27.1722 1.57377C27.1722 1.11107 26.7971 0.735977 26.3344 0.735977C25.8717 0.735977 25.4966 1.11107 25.4966 1.57377V3.73382C25.4966 4.19652 25.8717 4.57161 26.3344 4.57161C26.7971 4.57161 27.1722 4.19652 27.1722 3.73382V1.57377Z" fill="#EBEBEB"/>
<path d="M36.4929 1.57377C36.4929 1.11107 36.1178 0.735977 35.6551 0.735977C35.1924 0.735977 34.8173 1.11107 34.8173 1.57377V3.73382C34.8173 4.19652 35.1924 4.57161 35.6551 4.57161C36.1178 4.57161 36.4929 4.19652 36.4929 3.73382V1.57377Z" fill="#EBEBEB"/>
<path d="M38.4423 28.868L28.699 39.1129C28.699 39.1129 29.0674 37.3092 29.0704 36.1759C29.0724 35.4562 28.9251 34.828 28.8754 33.7937C28.7367 30.8933 30.4158 30.1545 31.2088 29.7249C32.425 29.0665 34.4193 29.5535 35.6219 29.4756C36.13 29.4424 38.0629 29.358 38.4423 28.8675V28.868Z" fill="#BABABA"/>
<path d="M41.6699 28.2232L28.699 39.1129C28.699 39.1129 29.3438 37.0423 29.4709 35.715C29.5518 34.8722 29.4408 34.1193 29.4935 32.9026C29.6408 29.4891 31.7647 28.8157 32.7763 28.4031C34.3278 27.7703 36.7009 28.5684 38.1725 28.6142C38.7941 28.6333 41.1552 28.7549 41.6699 28.2237V28.2232Z" fill="#E7E6E6"/>
<path d="M10.4712 17.1113H4.97656V20.6735H10.4712V17.1113Z" fill="#EBEBEB"/>
<path d="M10.4712 23.4517H4.97656V27.014H10.4712V23.4517Z" fill="#EBEBEB"/>
<path d="M19.2154 23.4517H13.7208V27.014H19.2154V23.4517Z" fill="#EBEBEB"/>
<path d="M27.9592 23.4517H22.4646V27.014H27.9592V23.4517Z" fill="#EBEBEB"/>
<path d="M36.5341 23.4517H31.0395V27.014H36.5341V23.4517Z" fill="#EBEBEB"/>
<path d="M10.4712 29.7917H4.97656V33.3539H10.4712V29.7917Z" fill="#EBEBEB"/>
<path d="M19.2154 29.7917H13.7208V33.3539H19.2154V29.7917Z" fill="#EBEBEB"/>
<path d="M27.9592 29.7917H22.4646V33.3539H27.9592V29.7917Z" fill="#EBEBEB"/>
<path d="M19.2154 17.1113H13.7208V20.6735H19.2154V17.1113Z" fill="#EBEBEB"/>
<path d="M27.9592 17.1113H22.4646V20.6735H27.9592V17.1113Z" fill="#EBEBEB"/>
<path d="M36.703 17.1113H31.2084V20.6735H36.703V17.1113Z" fill="#EBEBEB"/>
<path d="M7.93424 1.57377C7.93424 1.11107 7.55915 0.735977 7.09645 0.735977C6.63376 0.735977 6.25867 1.11107 6.25867 1.57377V3.73382C6.25867 4.19652 6.63376 4.57161 7.09645 4.57161C7.55915 4.57161 7.93424 4.19652 7.93424 3.73382V1.57377Z" fill="#EBEBEB"/>
<path d="M25.1484 14.8341C25.1348 14.8517 25.1403 14.8929 25.177 14.8869L25.2067 14.8186L25.1484 14.8341Z" fill="#DC4844"/>
<path d="M25.3836 14.9804C25.4062 14.9653 25.4313 14.9457 25.4489 14.9206C25.466 14.8955 25.4755 14.8658 25.4655 14.8321C25.4398 14.8628 25.4258 14.8708 25.4107 14.8804C25.3961 14.8899 25.3805 14.902 25.3539 14.9397C25.3172 14.9447 25.2926 14.9115 25.3006 14.8869C25.2936 14.8955 25.2795 14.8899 25.2644 14.8884C25.2494 14.8869 25.2333 14.8884 25.2222 14.91C25.2665 14.9658 25.3238 14.9739 25.3906 14.9352C25.4022 14.9517 25.3876 14.9683 25.3831 14.9809L25.3836 14.9804Z" fill="#DC4844"/>
<path d="M28.1928 16.8012L28.1869 16.7771C28.1869 16.7851 28.1885 16.7932 28.1928 16.8012Z" fill="#DC4844"/>
<path d="M28.7684 18.7909C28.7658 18.7738 28.7583 18.7673 28.7513 18.7663C28.7566 18.7818 28.762 18.7947 28.7684 18.7909Z" fill="#DC4844"/>
<path d="M28.6841 19.143C28.6868 19.135 28.6884 19.1286 28.69 19.1216C28.6825 19.1296 28.6787 19.1377 28.6841 19.143Z" fill="#DC4844"/>
<path d="M28.1924 16.7997L28.199 16.8288L28.2045 16.8585C28.2256 16.8495 28.2035 16.8248 28.1924 16.7997Z" fill="#DC4844"/>
<path d="M25.8984 14.8975C25.885 14.8975 25.8733 14.9021 25.8615 14.9082C25.8723 14.9077 25.883 14.9072 25.8937 14.9082C25.8953 14.9046 25.8963 14.9016 25.8984 14.898V14.8975Z" fill="#DC4844"/>
<path d="M27.5514 16.1375L27.5386 16.1257C27.5294 16.1283 27.5192 16.1324 27.5084 16.1375H27.5509H27.5514Z" fill="#DC4844"/>
<path d="M26.9852 15.7212C26.9973 15.7317 27.0335 15.685 27.0526 15.6664C27.032 15.682 27.0154 15.6855 27.0013 15.682C26.9953 15.6915 26.9898 15.7041 26.9852 15.7212Z" fill="#DC4844"/>
<path d="M26.0004 15.1709L25.989 15.1719L25.9776 15.1734C25.9833 15.1724 25.9931 15.1724 25.9999 15.1709H26.0004Z" fill="#DC4844"/>
<path d="M27.8897 16.5087C27.8833 16.5157 27.8784 16.5232 27.8768 16.5285C27.8827 16.5237 27.887 16.5167 27.8897 16.5087Z" fill="#DC4844"/>
<path d="M24.787 15.2412C24.787 15.2452 24.788 15.2481 24.788 15.2516C24.7918 15.2457 24.7928 15.2412 24.787 15.2412Z" fill="#DC4844"/>
<path d="M25.6557 15.4865L25.6439 15.4901C25.6429 15.5013 25.6424 15.5126 25.6429 15.5238L25.6557 15.4865Z" fill="#DC4844"/>
<path d="M28.516 19.7558C28.516 19.7558 28.5169 19.7545 28.5178 19.7535C28.5156 19.7374 28.5147 19.7461 28.516 19.7558Z" fill="#DC4844"/>
<path d="M23.8909 21.7525C23.917 21.7867 23.8864 21.7963 23.8592 21.8073C23.8321 21.8184 23.8085 21.8309 23.8512 21.8732C23.8497 21.8606 23.8778 21.8445 23.8974 21.8239C23.917 21.8033 23.9276 21.7797 23.8909 21.7525Z" fill="#DC4844"/>
<path d="M25.9153 14.9095C25.9255 14.9111 25.9363 14.9131 25.9465 14.9167C25.9332 14.9111 25.9235 14.909 25.9153 14.9095Z" fill="#DC4844"/>
<path d="M23.8507 21.8732L23.8603 21.8824L23.8507 21.8732Z" fill="#DC4844"/>
<path d="M27.9431 21.0706C27.9533 21.0747 27.9631 21.0747 27.9728 21.0747C27.9677 21.0711 27.9595 21.0695 27.9431 21.0706Z" fill="#DC4844"/>
<path d="M28.5278 20.1493L28.5101 20.174C28.5192 20.1649 28.524 20.1568 28.5278 20.1493Z" fill="#DC4844"/>
<path d="M27.6216 21.5304C27.6073 21.536 27.5981 21.533 27.5873 21.5519C27.5909 21.5529 27.5935 21.5534 27.5966 21.554C27.5971 21.5432 27.6022 21.534 27.6211 21.5309L27.6216 21.5304Z" fill="#DC4844"/>
<path d="M27.132 21.835C27.1366 21.8381 27.1417 21.8396 27.1468 21.8417C27.1519 21.8381 27.1575 21.8345 27.1627 21.8315L27.132 21.835Z" fill="#DC4844"/>
<path d="M22.8576 15.6292C22.8767 15.6403 22.8913 15.6548 22.9038 15.6699C22.8807 15.6332 22.9677 15.5885 22.8576 15.6292Z" fill="#DC4844"/>
<path d="M25.8908 14.9316C25.8983 14.9171 25.9058 14.9107 25.917 14.9096C25.909 14.9085 25.9015 14.908 25.8934 14.908C25.8891 14.9166 25.887 14.9252 25.8902 14.9316H25.8908Z" fill="#DC4844"/>
<path d="M27.8984 21.9063L27.8522 21.938C27.8406 21.946 27.8291 21.9541 27.82 21.9591L27.8049 21.9687C27.8341 21.9551 27.8672 21.9315 27.8984 21.9063Z" fill="#DC4844"/>
<path d="M20.5939 19.3809L20.5795 19.3573C20.5805 19.3675 20.5848 19.376 20.5939 19.3809Z" fill="#DC4844"/>
<path d="M27.5285 22.1586C27.5004 22.1501 27.4762 22.1496 27.4531 22.1531C27.4511 22.1596 27.4481 22.1652 27.4486 22.1727L27.5285 22.1586Z" fill="#DC4844"/>
<path d="M23.529 15.3528C23.431 15.3729 23.4999 15.4372 23.4888 15.4855C23.3798 15.5332 23.423 15.4422 23.3743 15.4126C23.3657 15.4171 23.3577 15.4226 23.3501 15.4282C23.3426 15.4342 23.3356 15.4407 23.3285 15.4473C23.315 15.4608 23.3019 15.4749 23.2898 15.4885C23.2657 15.5156 23.2431 15.5392 23.2159 15.5448C23.2084 15.5337 23.1969 15.5317 23.2049 15.5131C23.1898 15.5327 23.1692 15.5473 23.1446 15.5593C23.12 15.5714 23.0923 15.5805 23.0642 15.59C23.0501 15.595 23.036 15.6001 23.0225 15.6056C23.0089 15.6116 22.9953 15.6181 22.9833 15.6257C22.9581 15.6408 22.9365 15.6594 22.9214 15.685C22.9129 15.6805 22.9074 15.6754 22.9038 15.6704C22.9305 15.7026 22.9451 15.7393 22.9511 15.7669C22.931 15.7744 22.9159 15.7925 22.9018 15.8031C22.8883 15.8142 22.8752 15.8182 22.8591 15.7971C22.8848 15.7895 22.8797 15.7694 22.8863 15.7503L22.8682 15.7684L22.8506 15.7865C22.7867 15.7322 22.9008 15.7413 22.8832 15.691C22.8636 15.7036 22.8445 15.7197 22.8254 15.7358L22.7687 15.7845C22.7501 15.8001 22.7315 15.8137 22.7134 15.8247C22.6953 15.8353 22.6772 15.8428 22.6596 15.8443C22.639 15.8142 22.6742 15.793 22.7008 15.777C22.7274 15.7614 22.746 15.7498 22.6908 15.7368L22.746 15.7302C22.7737 15.7267 22.8013 15.7242 22.8013 15.7242C22.6842 15.6468 22.8662 15.7086 22.7526 15.6222C22.6812 15.6383 22.6465 15.6614 22.6129 15.6855C22.5787 15.7091 22.5455 15.7332 22.4757 15.7528C22.4626 15.8026 22.5093 15.8021 22.4968 15.8513C22.4586 15.888 22.4264 15.9016 22.3973 15.9021C22.3827 15.9021 22.3691 15.8996 22.3555 15.8956C22.3425 15.8916 22.3299 15.886 22.3179 15.8805C22.2696 15.8584 22.2264 15.8358 22.1827 15.9137C22.1766 15.9438 22.1822 15.9805 22.1741 16.0112C22.1666 16.0418 22.146 16.0649 22.0887 16.0715L22.0837 16.0277L22.0786 15.9835C22.0163 16.0162 22.0143 16.0509 22.0093 16.082C22.0068 16.0976 22.0032 16.1117 21.9912 16.1237C21.9851 16.1298 21.9766 16.1353 21.9655 16.1408C21.954 16.1464 21.9394 16.1509 21.9208 16.1554C21.9228 16.1353 21.9419 16.1142 21.958 16.0996C21.9741 16.085 21.9867 16.0755 21.9751 16.077C21.9178 16.075 21.9098 16.0946 21.9093 16.1182C21.9083 16.1423 21.9143 16.171 21.8846 16.1911L21.8319 16.1408C21.8027 16.1644 21.7741 16.1906 21.7469 16.2192C21.7334 16.2333 21.7193 16.2479 21.7062 16.263L21.666 16.3087C21.6524 16.3238 21.6394 16.3398 21.6263 16.3554C21.6132 16.371 21.5997 16.3866 21.5861 16.4022C21.5595 16.4338 21.5318 16.464 21.5042 16.4941C21.4966 16.4725 21.5032 16.4363 21.4595 16.4464C21.3931 16.5298 21.3127 16.6057 21.2283 16.6801C21.1443 16.7545 21.0569 16.8273 20.9775 16.8987L20.979 16.949C20.979 16.9615 20.98 16.9741 20.9805 16.9831L20.9815 16.9987C20.9705 17.0133 20.9393 17.0108 20.9408 16.9877C20.8755 17.0409 20.971 17.0133 20.9689 17.0585C20.9478 17.0982 20.9066 17.0897 20.9066 17.055C20.889 17.1289 20.8619 17.2294 20.8272 17.3239C20.7915 17.4189 20.7513 17.5098 20.6925 17.5666L20.689 17.5495L20.686 17.5324C20.6689 17.5571 20.6659 17.5807 20.6679 17.6023C20.6704 17.6239 20.6785 17.644 20.686 17.6636C20.6895 17.6732 20.6935 17.6827 20.6961 17.6923C20.6991 17.7018 20.7006 17.7114 20.7006 17.7204C20.7006 17.7395 20.693 17.7581 20.6714 17.7792L20.6669 17.7566C20.6403 17.8134 20.6247 17.8752 20.6081 17.9365C20.5955 17.9988 20.5825 18.0612 20.5734 18.122C20.5709 18.137 20.5684 18.1521 20.5654 18.1672L20.5609 18.1893L20.5573 18.2114C20.5523 18.2406 20.5463 18.2692 20.5392 18.2969L20.5287 18.3376C20.5252 18.3511 20.5207 18.3642 20.5161 18.3768C20.5071 18.4024 20.4955 18.427 20.4835 18.4506C20.5056 18.4607 20.5136 18.4808 20.5156 18.5059C20.5166 18.5185 20.5156 18.5321 20.5146 18.5466L20.5121 18.5688C20.5116 18.5763 20.5111 18.5833 20.5106 18.5909C20.5066 18.6497 20.5066 18.707 20.5699 18.7115C20.5568 18.7472 20.5458 18.7718 20.5357 18.7919C20.5257 18.812 20.5166 18.8271 20.5096 18.8442C20.5021 18.8612 20.4955 18.8803 20.49 18.908C20.487 18.9216 20.4845 18.9376 20.482 18.9567C20.4794 18.9758 20.4784 18.9974 20.4769 19.0236C20.4784 19.0507 20.5006 19.0678 20.5252 19.0854C20.5503 19.103 20.5784 19.1211 20.591 19.1517L20.5277 19.1658L20.5694 19.203C20.5795 19.212 20.591 19.2211 20.5991 19.2276L20.6126 19.2387L20.5805 19.2703L20.5483 19.3025L20.5634 19.3307C20.5709 19.3447 20.579 19.3588 20.579 19.3588C20.5759 19.3342 20.5945 19.301 20.6136 19.3C20.6202 19.3105 20.6247 19.3226 20.6287 19.3347C20.6327 19.3467 20.6357 19.3598 20.6378 19.3729C20.6413 19.399 20.6413 19.4261 20.6383 19.4518C20.6332 19.502 20.6192 19.5437 20.6036 19.5503L20.6227 19.5819C20.6337 19.601 20.6503 19.6257 20.6664 19.6503C20.6825 19.6749 20.6986 19.699 20.7106 19.7171L20.7317 19.7468C20.7056 19.7518 20.6825 19.7196 20.6574 19.6965C20.6704 19.7081 20.679 19.7176 20.685 19.7252C20.691 19.7327 20.694 19.7387 20.6945 19.7433C20.6961 19.7528 20.6885 19.7583 20.6815 19.7639C20.6664 19.7744 20.6508 19.784 20.6996 19.8252C20.7076 19.8056 20.7383 19.8181 20.7513 19.8151C20.7473 19.8317 20.7478 19.8513 20.7513 19.8729C20.7549 19.8945 20.7619 19.9177 20.7709 19.9413C20.7795 19.9649 20.7915 19.9885 20.8046 20.0111C20.8177 20.0337 20.8312 20.0554 20.8453 20.0745L20.7976 20.0785C20.8056 20.0986 20.8152 20.1177 20.8252 20.1373C20.8353 20.1569 20.8458 20.176 20.8574 20.1956C20.8684 20.2152 20.8805 20.2343 20.8931 20.2534L20.9318 20.3107C20.9443 20.3298 20.9584 20.3489 20.9725 20.3675C20.986 20.3866 21.0001 20.4057 21.0137 20.4247C21.0413 20.4629 21.07 20.5006 21.0966 20.5403C21.0755 20.472 21.1489 20.4418 21.1851 20.4825L21.1418 20.5398C21.1971 20.5439 21.1298 20.4785 21.2142 20.5072C21.2484 20.5675 21.179 20.5911 21.1368 20.571L21.2067 20.6263C21.1931 20.6429 21.173 20.6328 21.1489 20.6439C21.176 20.6459 21.1851 20.6856 21.1991 20.7248C21.2062 20.7444 21.2142 20.764 21.2263 20.7786C21.2383 20.7926 21.2549 20.8012 21.277 20.7992L21.2645 20.8158C21.3253 20.8901 21.377 20.9379 21.4258 20.9816C21.4509 21.0032 21.475 21.0233 21.4997 21.0454L21.5183 21.062L21.5379 21.0791C21.5514 21.0907 21.565 21.1032 21.5791 21.1163C21.6007 21.0962 21.6203 21.0987 21.6424 21.1062C21.6645 21.1138 21.6901 21.1248 21.7233 21.1223C21.7409 21.1444 21.7575 21.1691 21.7756 21.1932C21.7937 21.2173 21.8123 21.2429 21.8319 21.2681L21.8469 21.2872C21.852 21.2932 21.8575 21.2992 21.8625 21.3053C21.8731 21.3173 21.8841 21.3289 21.8957 21.3404C21.9072 21.352 21.9193 21.3631 21.9319 21.3741C21.9444 21.3852 21.958 21.3947 21.9721 21.4043C22.0661 21.4369 22.0238 21.3801 22.0786 21.3766C22.052 21.4249 22.1661 21.4967 22.0862 21.4892C22.155 21.5324 22.2002 21.557 22.252 21.5827C22.2776 21.5952 22.3058 21.6063 22.3395 21.6194C22.356 21.6259 22.3741 21.6329 22.3947 21.6395L22.4621 21.6611C22.454 21.6309 22.4375 21.6103 22.4576 21.6008C22.4933 21.6113 22.5184 21.6616 22.5013 21.6817H22.4902C22.5199 21.6867 22.5485 21.6958 22.5757 21.7088C22.5892 21.7154 22.6028 21.7229 22.6159 21.7309C22.6289 21.739 22.642 21.747 22.6551 21.7566C22.6807 21.7747 22.7058 21.7953 22.731 21.8164C22.7561 21.837 22.7807 21.8591 22.8053 21.8802C22.9044 21.9646 23.0054 22.041 23.1104 22.0209L23.0988 22.0224L23.1295 22.0244C23.1481 22.0254 23.1722 22.0275 23.1968 22.0285L23.2943 22.0325C23.333 22.0511 23.318 22.0561 23.2989 22.0636C23.2798 22.0707 23.2567 22.0797 23.2813 22.1064C23.3366 22.1013 23.3828 22.1064 23.4235 22.1154C23.4647 22.1239 23.5009 22.138 23.5356 22.1526C23.5708 22.1662 23.6044 22.1807 23.6401 22.1913C23.6763 22.2013 23.7145 22.2064 23.7582 22.2029C23.7788 22.2501 23.818 22.2787 23.8663 22.2988C23.8904 22.3094 23.917 22.3159 23.9452 22.322C23.9733 22.3275 24.0025 22.333 24.0321 22.3365C24.0618 22.3401 24.0919 22.3436 24.1221 22.3476C24.1517 22.3516 24.1809 22.3551 24.209 22.3612C24.2648 22.3727 24.3156 22.3898 24.3538 22.422L24.3503 22.3833C24.4 22.3546 24.4 22.4134 24.4312 22.427C24.4312 22.3973 24.3884 22.3863 24.4191 22.3707C24.6086 22.3782 24.798 22.4149 24.9905 22.4556C25.1825 22.4964 25.3775 22.5401 25.5705 22.5622C25.6414 22.5687 25.662 22.521 25.6871 22.4828C25.7122 22.4446 25.7409 22.4169 25.8298 22.4612L25.7791 22.5305C25.9223 22.4893 26.0685 22.4868 26.2168 22.4793C26.254 22.4768 26.2907 22.4747 26.3279 22.4717C26.3651 22.4682 26.4018 22.4637 26.4384 22.4587C26.4751 22.4521 26.5113 22.4446 26.547 22.4355C26.5827 22.4255 26.6179 22.4129 26.652 22.3984C26.638 22.4169 26.641 22.4376 26.6128 22.4421C26.6299 22.4521 26.653 22.4551 26.6777 22.4526C26.7023 22.4496 26.7284 22.4421 26.7515 22.432C26.7631 22.427 26.7742 22.4215 26.7842 22.4154C26.7943 22.4089 26.8028 22.4024 26.8103 22.3958C26.8249 22.3828 26.8325 22.3697 26.8304 22.3597C26.8757 22.3536 26.8495 22.3933 26.8822 22.4074C26.8993 22.4114 26.9169 22.4064 26.9335 22.3973C26.9501 22.3888 26.9666 22.3767 26.9822 22.3652C27.0134 22.3431 27.0405 22.322 27.0641 22.3411C27.0722 22.3471 27.0521 22.3622 27.042 22.3692C27.0501 22.3602 27.0657 22.3526 27.0842 22.3451C27.1023 22.3375 27.1229 22.3315 27.1405 22.323C27.1757 22.3069 27.1998 22.2908 27.1707 22.2707C27.2285 22.2652 27.2757 22.237 27.3205 22.2119C27.3315 22.2059 27.3426 22.1988 27.3531 22.1928C27.3637 22.1863 27.3747 22.1807 27.3858 22.1757C27.4074 22.1652 27.43 22.1586 27.4541 22.1551C27.4597 22.1335 27.4737 22.1189 27.4913 22.1074C27.5089 22.0958 27.531 22.0878 27.5501 22.0782C27.5893 22.0596 27.623 22.0405 27.6054 21.9968C27.6275 22.039 27.6793 22.028 27.7301 21.9958C27.7547 21.9787 27.7783 21.9571 27.7979 21.9345C27.8175 21.9119 27.8311 21.8877 27.8381 21.8681C27.8376 21.9053 27.9049 21.8526 27.9085 21.9008C27.9396 21.8742 27.9658 21.8445 27.9793 21.8189C27.9929 21.7933 27.9919 21.7701 27.9703 21.7571C27.9934 21.7551 28.013 21.749 28.0306 21.7405C28.0477 21.7319 28.0628 21.7209 28.0748 21.7073C28.0874 21.6942 28.0979 21.6797 28.107 21.6641C28.1165 21.649 28.1251 21.6334 28.1321 21.6179C28.1472 21.5872 28.1618 21.5591 28.1829 21.5405C28.203 21.5214 28.2301 21.5128 28.2713 21.5204C28.3286 21.4128 28.3789 21.3103 28.4261 21.2108C28.4724 21.1113 28.5156 21.0148 28.5568 20.9208C28.596 20.9474 28.5693 20.9982 28.5437 21.0469C28.5171 21.0957 28.4915 21.1429 28.5357 21.166C28.5734 21.0711 28.5874 20.9886 28.605 20.9102C28.6136 20.871 28.6246 20.8333 28.6382 20.7946C28.6518 20.7559 28.6714 20.7172 28.697 20.676C28.7297 20.6358 28.7226 20.7198 28.7287 20.7419C28.7357 20.7177 28.7422 20.6941 28.7503 20.671C28.7583 20.6479 28.7669 20.6258 28.7759 20.6037C28.7935 20.5594 28.8116 20.5162 28.8302 20.474C28.8473 20.4313 28.8634 20.3886 28.8759 20.3458C28.8875 20.3026 28.8955 20.2584 28.8975 20.2137C28.9056 20.2167 28.9086 20.2378 28.9101 20.2569C28.9186 20.2237 28.9483 20.185 28.9061 20.176L28.9076 20.2112C28.8885 20.2192 28.8734 20.2127 28.8618 20.1981C28.8498 20.1835 28.8407 20.1609 28.8332 20.1373C28.8176 20.0895 28.8076 20.0373 28.792 20.0297C28.8438 20.074 28.8623 20.0363 28.884 20.0031C28.9056 19.9699 28.9297 19.9408 28.993 20.0051C28.991 19.981 28.9789 19.9488 28.9493 19.9468C28.9654 19.9167 28.984 19.9101 29.0081 19.9513C29.0111 19.8885 28.999 19.8654 28.989 19.8448C28.9794 19.8242 28.9719 19.8051 28.9835 19.7518C29.0041 19.7563 29.0071 19.78 29.0287 19.796C29.0146 19.7644 29.0001 19.7327 28.994 19.6985C28.987 19.6639 28.9875 19.6267 29.0046 19.5829C29.0161 19.5905 29.0342 19.5829 29.0292 19.6101C29.0352 19.5704 29.0322 19.5327 29.0277 19.496C29.0252 19.4779 29.0222 19.4598 29.0192 19.4417C29.0161 19.4236 29.0121 19.406 29.0086 19.3879C29.0051 19.3704 29.0021 19.3523 29.0001 19.3342C28.998 19.3161 28.9965 19.298 28.996 19.2794C28.9945 19.2422 28.9996 19.2035 29.0121 19.1608C29.1001 19.2176 29.0448 19.104 29.1237 19.098C29.1237 19.098 29.1192 19.0738 29.1141 19.0502L29.1036 19.0025L29.0649 19.0392C29.0664 18.9979 29.0533 18.9593 29.0428 18.9221C29.0317 18.8849 29.0232 18.8497 29.0357 18.8145L29.0689 18.8748L29.0604 18.7979C29.0583 18.7788 29.0553 18.7597 29.0533 18.7452L29.0498 18.721L29.0367 18.7648C29.0337 18.7758 29.0302 18.7864 29.0272 18.7949L29.0227 18.8085C29.0126 18.7879 29.0011 18.7788 28.9895 18.7743C28.9784 18.7698 28.9679 18.7708 28.9593 18.7703C28.9423 18.7698 28.9327 18.7658 28.9418 18.7125C28.9463 18.723 28.9458 18.7029 28.9493 18.6748C28.9533 18.6467 28.9598 18.6105 28.9815 18.5873C28.9674 18.5682 28.9533 18.5492 28.9443 18.5275C28.9347 18.5059 28.9307 18.4813 28.9372 18.4506C28.9609 18.4326 29.0247 18.4537 29.0403 18.4421C29.0227 18.4341 29.0121 18.418 29.0041 18.3984C28.9955 18.3788 28.99 18.3552 28.984 18.331C28.9779 18.3069 28.9724 18.2828 28.9629 18.2622C28.9528 18.2416 28.9397 18.225 28.9206 18.2154C28.9397 18.229 28.9805 18.2235 28.988 18.2164L28.9297 18.1923C28.9402 18.1526 28.9478 18.1456 28.981 18.1456C28.9749 18.0888 28.9523 18.1024 28.9332 18.1124C28.9141 18.1225 28.8985 18.1295 28.9066 18.0596C28.9126 18.0692 28.9196 18.0627 28.9317 18.0823C28.9302 18.0139 28.9061 17.9521 28.8845 17.8918C28.8603 17.832 28.8382 17.7742 28.8322 17.7114C28.8649 17.6822 28.8774 17.7068 28.888 17.732C28.899 17.7566 28.9071 17.7812 28.9337 17.7521C28.9176 17.7094 28.8965 17.6671 28.8744 17.6254C28.8508 17.5842 28.8262 17.5435 28.8015 17.5033C28.7759 17.4631 28.7528 17.4234 28.7307 17.3832C28.7196 17.3631 28.7096 17.343 28.701 17.3229C28.692 17.3028 28.6849 17.2817 28.6779 17.2616L28.6804 17.2781C28.6819 17.2862 28.6829 17.2947 28.6829 17.2947C28.6271 17.3053 28.6266 17.2716 28.6297 17.2264C28.6312 17.2038 28.6337 17.1786 28.6297 17.1555C28.6256 17.1324 28.6161 17.1113 28.5945 17.0977C28.6111 17.1133 28.6623 17.0957 28.6488 17.0962C28.6126 16.9801 28.5126 16.8892 28.3874 16.757L28.4236 16.7605C28.4196 16.7424 28.4125 16.7228 28.403 16.7027C28.3934 16.6831 28.3814 16.663 28.3693 16.6429L28.3326 16.5836C28.3206 16.5645 28.3095 16.5464 28.301 16.5288C28.2643 16.5273 28.2432 16.4896 28.2251 16.5358C28.2251 16.5268 28.2246 16.5183 28.2236 16.5097C28.2226 16.5017 28.2216 16.4931 28.2201 16.4856C28.217 16.47 28.2125 16.4549 28.2075 16.4409C28.2025 16.4268 28.1964 16.4137 28.1894 16.4012C28.1859 16.3946 28.1824 16.3886 28.1783 16.3826C28.1743 16.3765 28.1703 16.371 28.1658 16.3655C28.1311 16.3212 28.0874 16.2861 28.0416 16.2544C28.019 16.2383 27.9969 16.2227 27.9748 16.2067C27.9527 16.1911 27.9321 16.1745 27.9135 16.1564C27.9044 16.1474 27.8954 16.1378 27.8874 16.1273C27.8793 16.1172 27.8713 16.1067 27.8647 16.0951C27.8512 16.0725 27.8406 16.0463 27.8341 16.0157C27.8517 16.0328 27.8939 16.0398 27.8798 16.0257L27.8572 16.0092L27.8341 15.9921L27.8069 15.9735C27.7703 15.9483 27.7336 15.9227 27.7336 15.9227C27.711 15.9679 27.7306 15.9604 27.7316 16.0132C27.6959 16.0192 27.6456 16.0021 27.6135 15.975C27.6929 16.0021 27.6652 15.9167 27.6572 15.873C27.6517 15.888 27.6321 15.8926 27.6245 15.9061C27.6215 15.875 27.6155 15.8629 27.6069 15.8614C27.5984 15.8599 27.5873 15.8679 27.5753 15.876C27.5511 15.8921 27.522 15.9091 27.4928 15.8473L27.5139 15.8317C27.5029 15.8267 27.4913 15.8232 27.4798 15.8202C27.4677 15.8172 27.4556 15.8142 27.4441 15.8111C27.4205 15.8046 27.3984 15.7961 27.3813 15.778C27.3989 15.7207 27.436 15.787 27.4667 15.7523C27.4521 15.7423 27.434 15.7373 27.4149 15.7337C27.4054 15.7322 27.3953 15.7312 27.3853 15.7302C27.3752 15.7292 27.3652 15.7287 27.3556 15.7277C27.3169 15.7232 27.2838 15.7141 27.2747 15.6729C27.3079 15.6775 27.3426 15.7026 27.3757 15.7076C27.3672 15.6609 27.3587 15.6393 27.3476 15.6247C27.3365 15.6101 27.324 15.6021 27.3049 15.5835L27.3084 15.5875L27.2667 15.5413C27.2561 15.5297 27.2456 15.5181 27.238 15.5091C27.23 15.5 27.225 15.4945 27.225 15.4945C27.225 15.4945 27.229 15.5026 27.233 15.5106L27.2411 15.5267C27.2024 15.5443 27.1727 15.5498 27.1476 15.5463C27.1224 15.5433 27.1018 15.5322 27.0812 15.5196C27.0606 15.5066 27.0395 15.493 27.0144 15.4835C27.0018 15.4784 26.9883 15.4749 26.9732 15.4734C26.9581 15.4714 26.9415 15.4719 26.9229 15.4754C26.9591 15.4694 26.9797 15.4649 26.9913 15.4598C27.0028 15.4548 27.0048 15.4493 27.0033 15.4428C27.0008 15.4302 26.9852 15.4131 27.0048 15.388C26.9873 15.3573 26.9551 15.3176 26.9757 15.3081C26.938 15.3166 26.9224 15.296 26.9018 15.2769C26.8812 15.2583 26.8561 15.2407 26.8033 15.2558C26.8063 15.2457 26.7928 15.2382 26.7832 15.2287C26.7732 15.2191 26.7666 15.207 26.7837 15.1864C26.7088 15.1689 26.7842 15.2261 26.7671 15.2467C26.7003 15.2538 26.65 15.2055 26.5892 15.1603C26.5741 15.1487 26.5586 15.1372 26.5425 15.1266C26.5259 15.1166 26.5083 15.1075 26.4902 15.1C26.4716 15.0925 26.4525 15.0869 26.4319 15.0844C26.4113 15.0819 26.3892 15.0824 26.3656 15.0869C26.3289 15.0844 26.2987 15.0854 26.2716 15.0894C26.2444 15.094 26.2208 15.1 26.1977 15.1065C26.1746 15.1131 26.152 15.1191 26.1268 15.1241C26.1017 15.1291 26.0741 15.1322 26.0414 15.1317C26.0253 15.11 26.0389 15.0945 26.0565 15.0844C26.0741 15.0744 26.0962 15.0698 26.0962 15.0698C26.0374 15.0201 25.9836 15.0126 25.9138 15.0186C25.9308 15.0045 25.9213 14.9859 25.9067 14.9593C25.8529 14.9527 25.855 15.0241 25.7926 14.9794C25.8092 14.9598 25.8323 14.9271 25.863 14.9105C25.7962 14.914 25.7268 14.9407 25.6595 14.9462C25.6484 14.9075 25.7077 14.9005 25.7353 14.8819C25.7162 14.8819 25.6946 14.8824 25.672 14.8829C25.6494 14.8839 25.6263 14.8859 25.6047 14.8889C25.5615 14.8955 25.5243 14.908 25.5092 14.9352C25.5092 14.9352 25.5202 14.9417 25.5308 14.9482L25.5524 14.9618C25.5258 14.9603 25.5459 14.9115 25.567 14.9045C25.6368 14.8703 25.6539 14.9382 25.6539 14.9588L25.6062 14.9643C25.6132 14.996 25.6278 15.012 25.6479 15.0196C25.6675 15.0276 25.6926 15.0261 25.7198 15.0216C25.774 15.012 25.8374 14.993 25.8821 15.0065C25.8821 15.0065 25.8675 15.0256 25.8534 15.0447C25.8394 15.0638 25.8253 15.0834 25.8253 15.0834L25.8791 15.0583C25.8926 15.0518 25.9062 15.0462 25.9168 15.0417L25.9339 15.0347C25.9479 15.0618 25.9484 15.1126 25.9022 15.1141C25.9283 15.1432 25.9439 15.1392 25.959 15.1357C25.9736 15.1322 25.9871 15.1286 26.0077 15.1593C26.0118 15.1683 26.0077 15.1714 26.0012 15.1734L26.0691 15.1663C26.052 15.1804 26.0615 15.2287 26.0283 15.2055C26.052 15.2256 26.0756 15.2347 26.0982 15.2387C26.1208 15.2432 26.1424 15.2422 26.162 15.2412C26.2012 15.2392 26.2324 15.2357 26.2414 15.2744L26.2309 15.2764C26.3093 15.289 26.3183 15.2754 26.3249 15.2548C26.3284 15.2442 26.3309 15.2322 26.3414 15.2206C26.352 15.2096 26.3706 15.198 26.4053 15.192C26.4053 15.192 26.4098 15.2367 26.4138 15.2809C26.4178 15.3252 26.4209 15.3689 26.4209 15.3689L26.4595 15.3151C26.4736 15.3231 26.5013 15.3407 26.4857 15.3623C26.5586 15.3463 26.4872 15.3327 26.5359 15.3086C26.548 15.3302 26.5676 15.3442 26.5887 15.3558C26.6098 15.3679 26.6334 15.3769 26.655 15.386C26.6978 15.4041 26.7309 15.4262 26.7154 15.4759C26.7626 15.4453 26.6656 15.4081 26.7556 15.4161C26.7415 15.4709 26.7646 15.4774 26.7973 15.4804C26.8294 15.484 26.8707 15.4845 26.8898 15.5242C26.8425 15.5629 26.7988 15.5046 26.836 15.583C26.8571 15.5669 26.8747 15.5644 26.8898 15.5699C26.9048 15.5754 26.9179 15.589 26.9295 15.6046C26.9531 15.6362 26.9737 15.6764 27.0033 15.685C27.0249 15.6533 27.0566 15.6639 27.0953 15.6865C27.1149 15.6976 27.135 15.7131 27.1571 15.7272C27.1787 15.7418 27.2029 15.7543 27.2265 15.7644C27.2164 15.7729 27.2486 15.8096 27.2903 15.8529C27.331 15.8976 27.3813 15.9498 27.4074 15.9901L27.3973 15.9981C27.4285 15.974 27.4607 15.98 27.4928 15.9961C27.5245 16.0132 27.5562 16.0403 27.5878 16.0574C27.5547 16.0901 27.533 16.0951 27.4913 16.086L27.5401 16.1283C27.5677 16.1202 27.5913 16.1247 27.6285 16.1474L27.5773 16.1785C27.5934 16.1926 27.6125 16.2036 27.6326 16.2147C27.6522 16.2258 27.6733 16.2368 27.6939 16.2489C27.7356 16.273 27.7743 16.3057 27.7984 16.3589C27.8205 16.3429 27.8326 16.3011 27.8527 16.271C27.8728 16.2408 27.9009 16.2217 27.9557 16.2554C27.9371 16.2785 27.9034 16.3147 27.8733 16.2996C27.8833 16.3042 27.916 16.3112 27.9205 16.3348L27.8522 16.3318C27.8703 16.3846 27.9004 16.3248 27.9245 16.3589C27.8929 16.3861 27.9225 16.4012 27.8939 16.4187C27.8838 16.4137 27.8833 16.3806 27.8607 16.3795C27.8733 16.3991 27.8838 16.4238 27.8904 16.4474C27.8964 16.471 27.8969 16.4946 27.8904 16.5112C27.906 16.4931 27.9331 16.475 27.9587 16.4977C27.9879 16.5303 27.9828 16.5439 27.9723 16.5559C27.9617 16.568 27.9467 16.5786 27.9532 16.6047C27.9889 16.6032 27.9984 16.6645 28.0487 16.6283C28.0638 16.6484 28.0432 16.67 28.0351 16.6876C28.0472 16.6926 28.0612 16.7052 28.0758 16.7203C28.0904 16.7354 28.106 16.7525 28.1195 16.7675C28.1477 16.7972 28.1733 16.8143 28.1864 16.7751L28.1834 16.763C28.1834 16.763 28.1869 16.766 28.1899 16.7675C28.2065 16.7786 28.2216 16.7912 28.2351 16.8052C28.2482 16.8193 28.2593 16.8349 28.2698 16.851C28.2799 16.867 28.2889 16.8841 28.2975 16.9017C28.306 16.9193 28.3125 16.9379 28.3196 16.956C28.3331 16.9927 28.3467 17.0294 28.3598 17.0656C28.3668 17.0831 28.3744 17.1007 28.3834 17.1173C28.3879 17.1254 28.3924 17.1334 28.3975 17.1414C28.402 17.1495 28.4075 17.157 28.413 17.1646L28.3945 17.1736C28.4241 17.2078 28.4497 17.2495 28.4734 17.2887C28.4854 17.3083 28.498 17.3269 28.5116 17.343C28.5256 17.3591 28.5392 17.3736 28.5553 17.3837C28.5653 17.4083 28.5437 17.4551 28.5166 17.454C28.5367 17.4817 28.5518 17.4963 28.5633 17.5159C28.5688 17.5259 28.5734 17.537 28.5764 17.552C28.5794 17.5671 28.5819 17.5862 28.5809 17.6119C28.5673 17.5988 28.5583 17.5948 28.5533 17.5938C28.5482 17.5933 28.5462 17.5958 28.5452 17.5978C28.5437 17.6013 28.5452 17.6003 28.5322 17.5561C28.5352 17.5777 28.5367 17.5958 28.5372 17.6119C28.5372 17.6279 28.5382 17.642 28.5407 17.6556C28.5432 17.6691 28.5482 17.6817 28.5578 17.6958C28.5673 17.7094 28.5814 17.7244 28.6015 17.7425C28.5714 17.7355 28.5603 17.7561 28.5598 17.7822C28.5588 17.8084 28.5699 17.8405 28.5824 17.8581C28.5824 17.8581 28.5879 17.841 28.5925 17.8239L28.602 17.7898C28.6231 17.8315 28.6287 17.8722 28.6347 17.9124L28.5613 17.9089C28.5568 17.9325 28.5563 17.9541 28.5598 17.9747C28.5623 17.9953 28.5683 18.0144 28.5764 18.0325C28.5844 18.0506 28.5945 18.0682 28.6055 18.0853C28.6161 18.1024 28.6271 18.1189 28.6377 18.1355C28.6483 18.1521 28.6588 18.1687 28.6668 18.1853C28.6754 18.2019 28.6809 18.219 28.6839 18.236C28.6869 18.2531 28.6869 18.2707 28.6819 18.2883C28.6794 18.2974 28.6764 18.3064 28.6714 18.3155C28.6663 18.3245 28.6603 18.3341 28.6523 18.3436C28.6794 18.3627 28.6849 18.3386 28.6915 18.3129C28.697 18.2873 28.7035 18.2607 28.7352 18.2768C28.7352 18.2868 28.7352 18.2974 28.7327 18.3079C28.7307 18.3185 28.7272 18.329 28.7231 18.3396C28.7151 18.3607 28.7045 18.3813 28.6935 18.3999C28.6724 18.4371 28.6498 18.4667 28.6508 18.4788C28.6372 18.5346 28.6653 18.5572 28.694 18.5813C28.7086 18.5934 28.7231 18.6054 28.7332 18.622C28.7382 18.6306 28.7422 18.6396 28.7442 18.6507C28.7463 18.6617 28.7463 18.6743 28.7437 18.6889C28.7679 18.6728 28.8342 18.6542 28.8613 18.7426C28.8598 18.7638 28.8533 18.7808 28.8427 18.7934C28.8322 18.8065 28.8191 18.815 28.8051 18.8195C28.7774 18.8286 28.7488 18.8205 28.7382 18.7954C28.7357 18.7763 28.7427 18.7668 28.7513 18.7673C28.7412 18.7411 28.7292 18.708 28.703 18.7406L28.7287 18.7502C28.7226 18.7602 28.7186 18.7748 28.7156 18.7904C28.7116 18.806 28.7086 18.8231 28.705 18.8376C28.6975 18.8673 28.6885 18.8879 28.6679 18.8753C28.6925 18.9351 28.7091 18.9015 28.7216 18.8562C28.7045 18.908 28.703 18.9477 28.7035 18.9884C28.7045 19.0291 28.7045 19.0698 28.69 19.1221C28.7045 19.106 28.7347 19.0919 28.7337 19.109C28.7287 19.1281 28.7262 19.1437 28.7241 19.1568C28.7221 19.1693 28.7221 19.1794 28.7231 19.1869C28.7251 19.2025 28.7317 19.21 28.7397 19.2161C28.7558 19.2286 28.7779 19.2352 28.7784 19.2889C28.7337 19.3457 28.6905 19.2583 28.7101 19.3678C28.6769 19.4292 28.6427 19.3729 28.6256 19.3457C28.6302 19.3583 28.6332 19.3704 28.6342 19.3819C28.6347 19.3935 28.6342 19.405 28.6322 19.4156C28.6281 19.4372 28.6196 19.4573 28.6091 19.4754C28.599 19.494 28.5864 19.5101 28.5759 19.5256C28.5653 19.5407 28.5558 19.5548 28.5513 19.5674L28.5402 19.5151C28.5467 19.5463 28.5422 19.5699 28.5382 19.594L28.592 19.5749C28.5849 19.5885 28.5804 19.6015 28.5754 19.6106C28.5699 19.6196 28.5633 19.6242 28.5533 19.6221C28.5663 19.6402 28.5879 19.6387 28.6101 19.6407C28.6322 19.6433 28.6553 19.6493 28.6709 19.684C28.6543 19.701 28.6553 19.7322 28.6508 19.7593C28.6462 19.786 28.6372 19.8086 28.603 19.8076C28.6287 19.7493 28.6116 19.7488 28.59 19.7498C28.5789 19.7503 28.5673 19.7513 28.5588 19.7453C28.5503 19.7392 28.5457 19.7272 28.5482 19.701C28.5523 19.7222 28.5457 19.7463 28.5306 19.7724C28.5226 19.7749 28.5181 19.7654 28.5166 19.7568C28.4316 19.8558 28.5774 19.8272 28.5432 19.9458C28.5116 19.9207 28.4678 19.9533 28.4693 19.9744C28.4844 19.9282 28.5362 19.9694 28.5497 20.0217C28.5241 20.0554 28.5231 20.0775 28.5256 20.0961C28.5281 20.1147 28.5357 20.1302 28.5271 20.1493L28.5558 20.1086C28.5859 20.1358 28.5683 20.1725 28.5603 20.2298C28.5317 20.2242 28.5583 20.1745 28.5397 20.1895C28.5447 20.1996 28.5472 20.2091 28.5467 20.2177C28.5467 20.2262 28.5437 20.2343 28.5392 20.2423C28.5306 20.2579 28.5151 20.272 28.4995 20.286C28.4678 20.3147 28.4311 20.3433 28.4347 20.3921C28.396 20.4187 28.3688 20.368 28.3397 20.3926C28.3422 20.4454 28.3196 20.4634 28.2965 20.481C28.2904 20.4856 28.2849 20.4901 28.2789 20.4951C28.2728 20.5001 28.2673 20.5052 28.2628 20.5117C28.2527 20.5248 28.2457 20.5424 28.2437 20.5685C28.301 20.566 28.2929 20.5549 28.3045 20.6409C28.3045 20.6409 28.3055 20.6383 28.3065 20.6338L28.3115 20.6152C28.3155 20.5996 28.3211 20.5795 28.3261 20.5589C28.3316 20.5383 28.3367 20.5182 28.3402 20.5027L28.3457 20.477L28.3492 20.4971C28.3512 20.5092 28.3542 20.5253 28.3563 20.5408C28.3608 20.573 28.3648 20.6047 28.3648 20.6047C28.3764 20.5821 28.3819 20.5549 28.3854 20.5303C28.3894 20.5052 28.3929 20.4836 28.403 20.4715C28.4186 20.5348 28.4095 20.5253 28.4578 20.5207C28.4331 20.5288 28.4201 20.5419 28.4125 20.5574C28.4045 20.573 28.402 20.5916 28.4005 20.6107C28.3985 20.6298 28.3975 20.6499 28.3914 20.6685C28.3859 20.6871 28.3738 20.7027 28.3532 20.7147L28.2452 20.6534C28.2191 20.6725 28.2035 20.6956 28.1924 20.7208C28.1809 20.7459 28.1748 20.7735 28.1688 20.8032C28.1618 20.8323 28.1552 20.8625 28.1432 20.8931C28.1306 20.9228 28.113 20.953 28.0849 20.9801C28.0849 20.9801 28.0964 20.9731 28.1075 20.9655L28.1301 20.9509C28.1447 20.9731 28.1336 20.9947 28.1155 21.0158C28.0979 21.0374 28.0758 21.06 28.0688 21.0856C28.0381 21.0575 28.007 21.0731 27.9743 21.0741C27.9874 21.0821 27.9708 21.1047 27.9562 21.1309C27.9421 21.1575 27.9316 21.1902 27.9592 21.2223L27.916 21.2309L27.8733 21.2389C27.8673 21.2439 27.8622 21.249 27.8572 21.254C27.8527 21.259 27.8482 21.264 27.8446 21.2691C27.8376 21.2791 27.8326 21.2897 27.8291 21.3007C27.822 21.3223 27.8215 21.346 27.82 21.3686C27.8175 21.4143 27.816 21.4626 27.7662 21.4987C27.7642 21.4696 27.7476 21.4595 27.7371 21.4465C27.726 21.4334 27.7205 21.4178 27.7371 21.3791C27.7089 21.4058 27.6783 21.4239 27.6969 21.4455C27.6883 21.4445 27.6818 21.4515 27.6753 21.4621C27.6687 21.4721 27.6627 21.4862 27.6557 21.5003C27.6486 21.5143 27.6411 21.5284 27.6321 21.539C27.6225 21.549 27.6114 21.5545 27.5984 21.5525C27.5969 21.5766 27.62 21.6148 27.5823 21.64C27.5732 21.6359 27.5702 21.6234 27.5702 21.6234C27.5828 21.6395 27.53 21.6877 27.5893 21.7013C27.5667 21.6978 27.5461 21.6983 27.526 21.7013C27.5059 21.7043 27.4868 21.7103 27.4682 21.7184C27.432 21.7355 27.3958 21.7581 27.3612 21.7817C27.3436 21.7933 27.3255 21.8038 27.3084 21.8144C27.2908 21.8244 27.2732 21.834 27.2551 21.8395C27.237 21.8455 27.2189 21.8495 27.2013 21.8505C27.1923 21.8505 27.1838 21.8505 27.1747 21.849C27.1657 21.8475 27.1566 21.8445 27.1481 21.841C27.13 21.8526 27.1104 21.8646 27.0903 21.8767C27.0802 21.8827 27.0702 21.8882 27.0596 21.8938L27.028 21.9099C26.9862 21.932 26.943 21.9486 26.9058 21.9626C26.9068 21.9491 26.9003 21.9425 26.9154 21.9425C26.8867 21.942 26.8707 21.9485 26.8601 21.9606C26.8495 21.9727 26.845 21.9893 26.8395 22.0058C26.834 22.0224 26.8284 22.039 26.8149 22.0511C26.8018 22.0626 26.7812 22.0692 26.7475 22.0662C26.6696 22.0154 26.8048 22.0154 26.7596 21.9998C26.7475 21.9676 26.7324 21.9546 26.7159 21.9526C26.7073 21.9516 26.6983 21.9531 26.6892 21.9566C26.6797 21.9596 26.6696 21.9641 26.6591 21.9692C26.638 21.9792 26.6148 21.9918 26.5912 21.9973C26.5671 22.0023 26.5425 22.0013 26.5189 21.9847L26.5374 21.9737C26.5199 21.9646 26.5023 21.9651 26.4837 21.9707C26.4651 21.9757 26.4455 21.9857 26.4249 21.9973L26.3927 22.0154C26.3817 22.0214 26.3701 22.0264 26.358 22.0315C26.3344 22.041 26.3093 22.0481 26.2826 22.0481C26.2826 22.0481 26.2867 22.0355 26.2816 22.0275C26.2485 22.0646 26.1977 22.0928 26.1414 22.1124C26.0851 22.133 26.0243 22.1451 25.9721 22.1566C26.0032 22.1023 26.0188 22.127 25.9972 22.0732C25.9509 22.0822 26.0138 22.1606 25.9198 22.1772C25.8886 22.1486 25.8208 22.1234 25.8122 22.0651L25.856 22.0636C25.867 22.0636 25.8781 22.0626 25.8861 22.0621H25.8997C25.8771 22.0244 25.8489 22.0249 25.8203 22.0335C25.7921 22.042 25.763 22.0581 25.7399 22.0511L25.7459 22.0184C25.7122 22.0209 25.6871 22.0275 25.6655 22.0365C25.6439 22.045 25.6263 22.0561 25.6082 22.0662C25.572 22.0868 25.5348 22.1048 25.4619 22.0993L25.476 22.125C25.3926 22.2039 25.4112 22.0762 25.3288 22.1335L25.3092 22.0496C25.2825 22.0581 25.2358 22.0752 25.183 22.0913C25.1307 22.1069 25.0724 22.1219 25.0247 22.1255C25.0835 22.0692 25.1951 22.0455 25.2649 22.0129C25.2393 22.0109 25.1956 22.0099 25.1544 22.0134C25.1132 22.0169 25.075 22.0259 25.0594 22.0455C25.081 22.039 25.1086 22.0209 25.1282 22.035C25.0941 22.0651 25.0554 22.0868 25.0121 22.0988C24.9689 22.1109 24.9212 22.1144 24.8694 22.1079C24.887 22.0285 24.8212 22.0119 24.7438 21.9963C24.7051 21.9893 24.6634 21.9812 24.6282 21.9676C24.5925 21.9541 24.5638 21.9335 24.5503 21.8998C24.5272 21.9038 24.504 21.9053 24.4809 21.9053C24.4583 21.9053 24.4357 21.9028 24.4136 21.8993C24.3915 21.8958 24.3688 21.8908 24.3467 21.8852C24.3246 21.8792 24.3025 21.8722 24.2804 21.8646C24.2357 21.85 24.1914 21.8325 24.1447 21.8169C24.1216 21.8093 24.098 21.8013 24.0738 21.7943C24.0497 21.7872 24.0246 21.7817 23.9995 21.7767C24.01 21.8119 24.012 21.8279 24.008 21.8355C24.004 21.843 23.9944 21.8415 23.9834 21.839C23.9608 21.835 23.9306 21.8289 23.9211 21.8928C23.8708 21.8892 23.8532 21.8822 23.8512 21.8727L23.7889 21.8164C23.7733 21.8023 23.7582 21.7882 23.7467 21.7772L23.7276 21.7591C23.7044 21.7133 23.7798 21.7445 23.7834 21.7159C23.6848 21.6772 23.7557 21.651 23.6994 21.5993C23.6994 21.6475 23.6456 21.6515 23.5939 21.6169L23.6567 21.6988C23.5758 21.7093 23.5532 21.6741 23.5316 21.638C23.51 21.6018 23.4883 21.5671 23.4079 21.5736L23.4652 21.5515C23.426 21.55 23.3602 21.5269 23.2928 21.5103C23.2758 21.5063 23.2587 21.5033 23.2416 21.5003C23.2245 21.4977 23.2074 21.4957 23.1908 21.4957C23.1576 21.4957 23.126 21.5023 23.0988 21.5178C23.0923 21.4987 23.0903 21.4595 23.1245 21.4641C23.0848 21.442 23.039 21.4284 22.9923 21.4148C22.9687 21.4083 22.9446 21.4028 22.9199 21.3972C22.8958 21.3912 22.8717 21.3852 22.8481 21.3796C22.8003 21.3681 22.7551 21.353 22.7154 21.3349C22.6757 21.3163 22.643 21.2917 22.6204 21.261L22.648 21.2409C22.6144 21.2324 22.5676 21.2615 22.5475 21.2128C22.5561 21.2027 22.5757 21.1932 22.5631 21.1836C22.5531 21.1836 22.5259 21.1841 22.4993 21.1786C22.4721 21.1731 22.4445 21.1625 22.4304 21.1429L22.4817 21.1339C22.4661 21.1178 22.4505 21.1047 22.4344 21.0932C22.4189 21.0816 22.4023 21.0726 22.3862 21.065C22.3696 21.0575 22.353 21.052 22.3359 21.0469C22.3194 21.0419 22.3023 21.0379 22.2852 21.0344C22.2163 21.0208 22.145 21.0123 22.0801 20.9741C22.1093 20.9384 22.1027 20.8926 22.0842 20.8494C22.0746 20.8283 22.063 20.8062 22.051 20.7866C22.0389 20.767 22.0264 20.7494 22.0168 20.7358L22.0274 20.7278C22.0103 20.7102 21.9932 20.6931 21.9756 20.6786C21.9671 20.671 21.958 20.664 21.949 20.6569L21.9354 20.6469L21.9223 20.6368C21.9047 20.6238 21.8866 20.6112 21.868 20.5996C21.859 20.5936 21.8495 20.5881 21.8399 20.5826L21.8123 20.5655C21.7751 20.5429 21.7364 20.5217 21.6992 20.4971C21.6806 20.4851 21.6615 20.4725 21.6424 20.4589C21.6238 20.4454 21.6057 20.4303 21.5876 20.4142C21.5886 20.3951 21.5861 20.375 21.5806 20.3554C21.5756 20.3353 21.5685 20.3142 21.559 20.2931C21.5544 20.2825 21.5489 20.272 21.5434 20.2614L21.5258 20.2287C21.5137 20.2066 21.5007 20.184 21.4866 20.1614C21.4328 20.0694 21.3725 19.9704 21.3554 19.8754C21.3539 19.9081 21.2896 19.9056 21.2655 19.88C21.2635 19.8563 21.2363 19.8357 21.2182 19.8176C21.2006 19.799 21.1931 19.783 21.2333 19.7679L21.2388 19.7825C21.2539 19.7659 21.2614 19.7498 21.2645 19.7327C21.2675 19.7156 21.2655 19.699 21.2609 19.6819C21.2564 19.6649 21.2489 19.6483 21.2408 19.6312C21.2333 19.6141 21.2258 19.5975 21.2197 19.5814L21.1122 19.6121C21.1313 19.5543 21.1298 19.4985 21.1152 19.4457C21.1082 19.4191 21.0991 19.3925 21.0881 19.3668C21.0825 19.3538 21.0765 19.3412 21.071 19.3281C21.0654 19.3151 21.0599 19.3025 21.0539 19.2899C21.0428 19.2648 21.0308 19.2402 21.0217 19.2161C21.0132 19.1919 21.0056 19.1688 21.0016 19.1467C20.9996 19.1357 20.9981 19.1251 20.9981 19.1145C20.9981 19.104 20.9991 19.0939 21.0016 19.0844C21.0061 19.0653 21.0152 19.0477 21.0308 19.0321C21.0217 19.0226 21.0147 19.0125 21.0081 19.0015C21.0021 18.9904 20.9971 18.9789 20.9916 18.9673C20.981 18.9442 20.9705 18.9211 20.9534 18.9015L21.0127 18.8959C21.0127 18.8658 21.0137 18.8396 21.0132 18.815V18.7788C21.0132 18.7668 21.0132 18.7552 21.0122 18.7431C21.0122 18.719 21.0097 18.6944 21.0071 18.6668C21.0056 18.6391 21.0026 18.608 20.9981 18.5713L21.0413 18.6004C21.0413 18.5904 21.0388 18.5813 21.0343 18.5728C21.0298 18.5642 21.0237 18.5567 21.0157 18.5492C21.0001 18.5346 20.9785 18.5215 20.9569 18.5079C20.9353 18.4949 20.9132 18.4813 20.8966 18.4657C20.88 18.4506 20.8699 18.4336 20.8699 18.4135L20.9152 18.4044C20.9378 18.3999 20.9604 18.3959 20.9604 18.3959C20.9614 18.3778 20.9629 18.3597 20.9669 18.3416C20.971 18.3235 20.9755 18.3059 20.9805 18.2883L20.988 18.2617C20.9906 18.2526 20.9931 18.2441 20.9961 18.2355C21.0021 18.218 21.0076 18.2009 21.0132 18.1833C21.0157 18.1747 21.0182 18.1657 21.0202 18.1571L21.0232 18.1441L21.0267 18.131C21.0313 18.1134 21.0343 18.0963 21.0358 18.0782C21.0368 18.0692 21.0373 18.0601 21.0373 18.0511C21.0373 18.0466 21.0373 18.0421 21.0373 18.0375C21.0373 18.033 21.0373 18.0285 21.0373 18.024C21.0363 18.0054 21.0338 17.9863 21.0283 17.9662C21.0403 17.9717 21.0639 17.9828 21.0614 18.0059C21.0664 17.9898 21.0765 17.9672 21.0871 17.942C21.0986 17.9174 21.1112 17.8908 21.1187 17.8657C21.1258 17.84 21.1313 17.8169 21.1252 17.7983C21.1197 17.7797 21.1041 17.7656 21.0735 17.7606C21.0921 17.7671 21.1051 17.7621 21.1142 17.7491C21.1187 17.7425 21.1222 17.7345 21.1247 17.7244C21.1278 17.7149 21.1303 17.7038 21.1318 17.6918C21.1333 17.6797 21.1348 17.6666 21.1353 17.6536C21.1358 17.64 21.1373 17.6264 21.1378 17.6129C21.1393 17.5857 21.1388 17.5586 21.1408 17.537L21.1876 17.5742C21.169 17.5279 21.1559 17.5013 21.1504 17.4747C21.1459 17.4485 21.1479 17.4214 21.1634 17.3741C21.182 17.3581 21.2142 17.3807 21.1856 17.3993C21.2182 17.3746 21.2137 17.355 21.2107 17.3334C21.2077 17.3118 21.2067 17.2882 21.2449 17.258L21.2574 17.3073C21.269 17.2917 21.276 17.2797 21.2805 17.2691C21.2851 17.259 21.2866 17.2505 21.2866 17.242C21.2866 17.2254 21.278 17.2088 21.273 17.1781C21.278 17.151 21.3037 17.1223 21.3338 17.1043C21.365 17.0862 21.3997 17.0786 21.4238 17.0912C21.4142 17.0766 21.4082 17.055 21.4097 17.0329C21.4112 17.0108 21.4203 16.9887 21.4414 16.9761C21.461 16.9846 21.4585 17.0052 21.458 17.0158C21.4871 16.9977 21.5067 16.9771 21.5208 16.955C21.5358 16.9339 21.5459 16.9113 21.5554 16.8902C21.565 16.8691 21.575 16.85 21.5891 16.8339C21.5962 16.8258 21.6037 16.8188 21.6132 16.8133C21.6228 16.8077 21.6338 16.8032 21.6474 16.8007C21.662 16.8133 21.6731 16.8163 21.6826 16.8153C21.6439 16.85 21.6107 16.8831 21.5866 16.9052C21.563 16.9284 21.5489 16.9404 21.5499 16.9364C21.5695 16.955 21.5957 16.9505 21.6173 16.9545C21.6394 16.958 21.657 16.9701 21.662 17.0188C21.6655 17.0002 21.669 16.9771 21.6741 16.953C21.6791 16.9289 21.6846 16.9022 21.6932 16.8776C21.7017 16.853 21.7123 16.8293 21.7253 16.8092C21.7389 16.7896 21.755 16.7741 21.7746 16.7655C21.7811 16.767 21.7871 16.768 21.7947 16.7726L21.7927 16.7826C21.8098 16.7741 21.8198 16.76 21.8253 16.7424C21.8505 16.7324 21.867 16.7268 21.8871 16.7117C21.9052 16.7258 21.9268 16.7158 21.949 16.6992C21.9711 16.6831 21.9932 16.66 22.0103 16.6484C21.9716 16.6032 22.0218 16.5786 21.951 16.5695C21.959 16.569 21.949 16.5801 21.9284 16.5992C21.9243 16.6042 21.9188 16.6097 21.9178 16.6148C21.9178 16.6127 21.9173 16.6107 21.9168 16.6087C21.8957 16.6268 21.8686 16.6504 21.8374 16.6771C21.8439 16.6333 21.8555 16.5906 21.9133 16.5881C21.9073 16.5449 21.9032 16.4987 21.9037 16.4755C22.0007 16.5057 22.1173 16.4801 22.158 16.5142C22.2013 16.465 22.2626 16.4213 22.3148 16.3725C22.3415 16.3489 22.3651 16.3233 22.3842 16.2956C22.4033 16.2685 22.4169 16.2378 22.4224 16.2036C22.449 16.174 22.4752 16.2122 22.4953 16.2217C22.4812 16.2413 22.4581 16.2514 22.4551 16.271C22.4681 16.2564 22.4867 16.2423 22.5063 16.2278C22.5264 16.2137 22.548 16.2001 22.5676 16.1856C22.6068 16.1569 22.638 16.1268 22.6305 16.0871C22.6807 16.084 22.6757 16.1056 22.6727 16.1202C22.6697 16.1348 22.6676 16.1418 22.7239 16.1102L22.7174 16.1388C22.7521 16.1403 22.7832 16.1373 22.8109 16.1293C22.8385 16.1212 22.8636 16.1102 22.8873 16.0956C22.9104 16.081 22.9325 16.0639 22.9541 16.0458L23.0184 15.989C23.04 15.97 23.0622 15.9509 23.0858 15.9338C23.0978 15.9252 23.1099 15.9167 23.1225 15.9096C23.135 15.9026 23.1486 15.8961 23.1622 15.8905C23.2175 15.8684 23.2813 15.8584 23.3602 15.88C23.3386 15.8755 23.328 15.8735 23.3205 15.8619C23.3622 15.8599 23.4029 15.8554 23.4436 15.8478C23.4843 15.8413 23.525 15.8333 23.5652 15.8232L23.6255 15.8076C23.6456 15.8026 23.6657 15.7976 23.6864 15.792L23.7472 15.7755L23.7773 15.7669L23.808 15.7594C23.8487 15.7493 23.8894 15.7398 23.9306 15.7312C23.9718 15.7232 24.013 15.7172 24.0542 15.7126C24.0748 15.7106 24.0955 15.7086 24.1161 15.7081C24.1367 15.7076 24.1578 15.7076 24.1784 15.7081C24.2201 15.7101 24.2613 15.7141 24.303 15.7232C24.3965 15.7352 24.4005 15.685 24.4528 15.6408L24.4794 15.7021L24.5679 15.6197C24.6332 15.586 24.696 15.6207 24.7619 15.6478C24.8277 15.6754 24.8976 15.6981 24.98 15.6413L24.9548 15.6001C25.0172 15.6041 25.1503 15.5629 25.1428 15.6126C25.1488 15.6046 25.1609 15.5669 25.186 15.588L25.1895 15.6212L25.3393 15.5563C25.4589 15.5744 25.3273 15.689 25.5001 15.6875C25.564 15.6719 25.6791 15.5825 25.6539 15.5614C25.6278 15.5614 25.5866 15.5438 25.5831 15.5106L25.6414 15.4905C25.6479 15.392 25.6891 15.29 25.5408 15.2282L25.4423 15.2925L25.4072 15.2467L25.4926 15.2397C25.4423 15.197 25.4132 15.2382 25.38 15.2669C25.3705 15.2422 25.3554 15.2251 25.3348 15.2166L25.2398 15.3151C25.2257 15.2774 25.2805 15.2367 25.2122 15.2191C25.1679 15.2648 25.2614 15.3025 25.1855 15.3352C25.1343 15.2935 25.1468 15.2563 25.0915 15.2975C25.082 15.2729 25.0931 15.2558 25.1152 15.2437C25.0659 15.2769 24.981 15.2648 24.9579 15.3186C24.9031 15.2674 24.7865 15.3453 24.785 15.2523C24.7704 15.2754 24.7005 15.3322 24.6538 15.3397C24.692 15.2809 24.6478 15.2829 24.5955 15.2844C24.5432 15.287 24.4829 15.289 24.4885 15.2287C24.4613 15.2814 24.405 15.298 24.3417 15.3111C24.31 15.3176 24.2769 15.3226 24.2447 15.3307C24.2126 15.3387 24.1819 15.3503 24.1553 15.3674C24.1603 15.3588 24.1708 15.3412 24.1814 15.3448C24.1166 15.3448 24.0939 15.3176 24.0502 15.3045C24.0537 15.3875 23.9572 15.4211 23.913 15.4794C23.8678 15.4468 23.8753 15.4211 23.8904 15.394C23.905 15.3679 23.9266 15.3407 23.9085 15.305C23.9155 15.3377 23.8844 15.3593 23.8557 15.3799C23.8271 15.4005 23.8014 15.4191 23.8195 15.4443C23.7517 15.4061 23.7643 15.4297 23.721 15.3679C23.7296 15.4709 23.6683 15.396 23.6316 15.4679C23.5838 15.4518 23.5728 15.4292 23.5637 15.4171C23.5592 15.4111 23.5547 15.4076 23.5456 15.4086C23.5366 15.4096 23.5235 15.4156 23.5014 15.4287C23.4753 15.4186 23.4813 15.3995 23.4944 15.3834C23.5009 15.3754 23.5089 15.3679 23.515 15.3623C23.5215 15.3568 23.5265 15.3538 23.5265 15.3538L23.529 15.3528ZM21.5168 16.5082L21.5157 16.5072C21.5298 16.4926 21.5414 16.4801 21.5494 16.4725C21.5424 16.4796 21.5328 16.4896 21.5168 16.5077V16.5082ZM21.376 16.6439C21.3946 16.6288 21.4152 16.6077 21.4378 16.5861C21.4569 16.5962 21.466 16.6163 21.4514 16.6288C21.4504 16.6203 21.4399 16.6218 21.4253 16.6263C21.4107 16.6313 21.3926 16.6394 21.376 16.6434V16.6439ZM21.9384 16.6901C21.9223 16.7138 21.9083 16.7107 21.8977 16.7037C21.9073 16.6947 21.9173 16.6836 21.9309 16.668C21.9304 16.666 21.9299 16.663 21.9289 16.6605C21.9339 16.671 21.9379 16.6811 21.9389 16.6906L21.9384 16.6901Z" fill="#DC4844"/>
<path d="M21.9303 16.599C21.9329 16.5954 21.9329 16.5918 21.9371 16.5881C21.9293 16.5876 21.922 16.5871 21.9148 16.5881C21.9158 16.5954 21.9169 16.6026 21.9184 16.6093L21.9303 16.599Z" fill="#DC4844"/>
<path d="M28.1859 16.7725L28.1868 16.7761C28.1868 16.7724 28.1868 16.7692 28.1891 16.7655C28.1882 16.7688 28.1868 16.7697 28.1859 16.7725Z" fill="#DC4844"/>
<path d="M20.5137 19.1685L20.5292 19.1653L20.5121 19.1492L20.5137 19.1685Z" fill="#DC4844"/>
<path d="M27.6563 15.8723C27.6584 15.867 27.659 15.8594 27.6557 15.8503C27.6536 15.8541 27.6547 15.8627 27.6563 15.8723Z" fill="#DC4844"/>
<path d="M27.3051 15.5814L27.2626 15.5267C27.2795 15.5528 27.2933 15.5692 27.3051 15.5814Z" fill="#DC4844"/>
<path d="M27.023 15.3669C27.0137 15.3736 27.0085 15.3803 27.0038 15.386C27.0038 15.386 27.0038 15.386 27.0038 15.3865L27.0225 15.3669H27.023Z" fill="#DC4844"/>
<path d="M28.9086 20.2549C28.9071 20.2595 28.9066 20.2646 28.9066 20.2692C28.9066 20.3045 28.9096 20.2815 28.9086 20.2549Z" fill="#DC4844"/>
<path d="M28.9819 18.5863C28.9942 18.6032 29.006 18.6201 29.0142 18.6385C29.0167 18.6083 29.0162 18.5848 28.9819 18.5863Z" fill="#DC4844"/>
<path d="M27.9086 21.8993C27.9086 21.8993 27.9086 21.8993 27.9086 21.8983C27.9056 21.9014 27.902 21.9034 27.8989 21.9065L27.9092 21.8993H27.9086Z" fill="#DC4844"/>
<path d="M29.0162 18.7145C29.0267 18.6843 29.0237 18.6597 29.0136 18.6376C29.0116 18.6622 29.0061 18.6909 29.0162 18.7145Z" fill="#DC4844"/>
<path d="M25.5872 14.8318L25.5701 14.8266C25.5701 14.8307 25.5685 14.8338 25.5665 14.8359L25.5872 14.8318Z" fill="#DC4844"/>
<path d="M25.5671 14.8356L25.5469 14.8398C25.5557 14.8413 25.5634 14.8419 25.5671 14.8356Z" fill="#DC4844"/>
<path d="M25.5046 14.8499L25.5256 14.8448L25.5405 14.8412L25.5471 14.8397C25.5333 14.8377 25.5159 14.8336 25.5046 14.8494V14.8499Z" fill="#DC4844"/>
<path d="M26.0414 14.9575L26.0532 14.9372C26.0489 14.9409 26.0451 14.9474 26.0414 14.9575Z" fill="#DC4844"/>
<path d="M26.1801 14.9904C26.1489 14.9759 26.1107 14.9221 26.061 14.9216L26.0519 14.9367C26.067 14.9241 26.0891 14.9442 26.1117 14.9638C26.1349 14.9834 26.1585 15.0025 26.1796 14.9899L26.1801 14.9904Z" fill="#DC4844"/>
<path d="M26.6194 15.4483L26.5721 15.4166C26.5606 15.4086 26.5485 15.401 26.5395 15.3955L26.5244 15.386C26.5334 15.4146 26.544 15.4528 26.4952 15.4377C26.5204 15.4674 26.5324 15.4784 26.5385 15.4799C26.5445 15.4815 26.545 15.4724 26.546 15.4619C26.5485 15.4407 26.5545 15.4131 26.6189 15.4488L26.6194 15.4483Z" fill="#DC4844"/>
<path d="M26.9094 15.6398C26.8516 15.6184 26.893 15.6695 26.8833 15.6793C26.9268 15.6803 26.9381 15.6808 26.9094 15.6398Z" fill="#DC4844"/>
<path d="M28.507 17.4837L28.4537 17.498C28.4778 17.5379 28.4737 17.4909 28.507 17.4837Z" fill="#DC4844"/>
<path d="M28.9206 17.8672L28.9407 17.8124L28.887 17.8028L28.9206 17.8672Z" fill="#DC4844"/>
<path d="M28.606 18.2285L28.595 18.2104L28.6266 18.2808L28.606 18.2285Z" fill="#DC4844"/>
<path d="M27.2014 21.745L27.2431 21.7983C27.2541 21.7867 27.2516 21.7631 27.2431 21.748C27.2385 21.7405 27.2325 21.735 27.2255 21.734C27.2184 21.733 27.2104 21.7355 27.2019 21.745H27.2014Z" fill="#DC4844"/>
<path d="M25.4795 22.0631C25.4604 22.0295 25.4102 22.0063 25.377 22.037C25.4177 22.044 25.4579 22.0707 25.4795 22.0631Z" fill="#DC4844"/>
<path d="M21.1585 19.5006L21.1918 19.5256L21.1519 19.4704L21.1585 19.5006Z" fill="#DC4844"/>
</svg>
