<svg width="30" height="30" viewBox="0 0 45 46" fill="none" xmlns="http://www.w3.org/2000/svg">
<path d="M13.2659 29.4372C13.0302 29.9991 20.0758 40.1465 21.9318 45.3572L22.9244 45.422C24.7944 40.137 31.6988 29.2402 31.4626 28.6778C31.2022 28.0577 32.2571 28.6311 29.1035 26.7399C25.9499 24.8482 26.3685 21.4684 26.3409 20.5075H18.2102C18.1826 21.4689 18.6012 24.8482 15.4476 26.7399C12.294 28.6311 13.5268 28.8176 13.2659 29.4377V29.4372Z" fill="#FCDCCB"/>
<path d="M27.1455 20.6688C27.0178 20.792 26.8877 20.9121 26.755 21.0292C26.3419 21.392 25.9001 21.7237 25.4252 22.0022C25.0201 22.2394 24.5919 22.4364 24.1446 22.5796C23.7385 22.7103 23.3189 22.7957 22.8942 22.839C22.367 22.8922 21.8258 22.8761 21.3026 22.7932C20.8729 22.7249 20.4507 22.6103 20.0456 22.451C19.5908 22.2726 19.1591 22.0394 18.753 21.7685C18.2701 21.4463 17.8233 21.0719 17.4056 20.6688C15.6295 18.9541 15.6451 14.6214 15.2164 14.9275C14.2364 15.5858 13.6087 13.6263 13.4866 12.4623C13.3639 11.2989 13.8947 10.8089 14.3847 11.2989C14.8747 11.7889 14.8807 11.2436 15.0174 10.6048C15.0616 10.3988 15.1159 10.1952 15.1752 9.99371C15.2662 9.68463 15.3707 9.38007 15.4878 9.08003C15.6336 8.70562 15.7989 8.33874 15.9844 7.98242C16.1944 7.57885 16.4306 7.18835 16.695 6.81796C16.9794 6.41942 17.2971 6.04399 17.6494 5.70375C18.0218 5.34341 18.4324 5.02277 18.8767 4.7564C19.3551 4.46893 19.8702 4.24579 20.407 4.09251C21.0357 3.91309 21.677 3.83871 22.3288 3.83871C22.956 3.8377 23.5843 3.92817 24.1873 4.10507C24.7201 4.26137 25.2322 4.48702 25.7066 4.776C26.1479 5.04438 26.5555 5.36602 26.9249 5.72637C27.2741 6.06711 27.5893 6.44253 27.8717 6.84057C28.134 7.21046 28.3682 7.59996 28.5768 8.00202C28.7607 8.35733 28.9246 8.7227 29.0693 9.09511C29.1854 9.39364 29.289 9.69669 29.3789 10.0038C29.4372 10.2023 29.4905 10.4028 29.5337 10.6053C29.6704 11.2441 29.6764 11.7894 30.1664 11.2994C30.6565 10.8094 31.1872 11.2994 31.0645 12.4628C30.9419 13.6263 30.3142 15.5858 29.3347 14.928C28.906 14.6219 28.9216 18.9546 27.1455 20.6693V20.6688Z" fill="#FDE3D5"/>
<path d="M25.6327 5.33939C24.0099 5.52333 22.4218 6.11084 19.7461 8.23923C17.6277 9.92486 15.7391 11.6055 14.8852 11.8306C14.6495 11.8929 14.6415 10.9893 13.8328 11.1567C13.6082 11.2029 13.3177 6.99285 15.0078 4.17593C16.9618 0.919267 20.7889 -0.488439 24.1788 0.526757C26.3006 1.16201 26.4233 2.08925 27.3776 2.33903C29.3618 2.85919 30.5931 5.98218 30.5931 9.01369C30.5931 12.0452 30.1031 11.4019 29.7664 11.6165C29.4297 11.8306 29.0095 8.94585 27.3867 7.59845C25.7639 6.25105 25.6327 5.33939 25.6327 5.33939Z" fill="#906B5E"/>
<path d="M16.3603 25.8644C15.3502 26.3132 8.70313 27.937 12.0709 33.1266C15.4381 38.3162 21.9585 45.711 28.7025 37.792C37.2894 27.7084 30.9706 27.6807 29.0066 25.9594C27.0857 24.2763 22.4007 31.4686 22.4007 31.4686L16.3608 25.8644H16.3603Z" fill="#5DA2D0"/>
<path d="M8.51116 46H22.5777C22.539 43.7289 22.5043 42.3116 22.4751 42.1538C22.3148 41.2753 22.245 40.9522 21.8248 40.1842C21.4981 39.5877 20.211 37.3407 19.813 36.7848C18.6983 35.2304 16.0472 31.0801 15.1848 29.3136C14.5491 28.0109 14.5043 26.8495 13.4891 27.238C12.4739 27.6265 7.72464 29.0362 6.43705 29.882C6.39534 29.9096 7.5794 32.7004 7.79349 34.1473C8.11363 36.3084 9.03535 42.9599 8.51016 46H8.51116Z" fill="#F4F5F5"/>
<path d="M8.88606 46C9.05794 44.9913 8.86495 39.2479 8.6599 37.3809C8.30659 34.1614 7.9563 31.15 6.93608 29.8559C6.66217 29.4578 5.03484 30.9892 4.85794 31.1646C3.26529 32.7371 2.68281 35.7259 1.21228 41.315C0.807207 42.8549 0.543357 44.4219 0.467468 46.0005H8.88606V46Z" fill="#E2E2E2"/>
<path d="M36.5119 46C35.9867 42.9599 36.9085 36.3084 37.2286 34.1473C37.4427 32.7009 38.6268 29.9096 38.585 29.882C37.2975 29.0357 32.5481 27.6265 31.5335 27.238C30.5183 26.8495 29.8915 27.8074 29.2553 29.1106C28.3929 30.8776 26.3243 35.2304 25.2096 36.7848C24.811 37.3402 23.5245 39.5877 23.1978 40.1842C22.7771 40.9522 22.7073 41.2748 22.5475 42.1538C22.5188 42.3116 22.4781 43.7294 22.4304 46H36.5119Z" fill="#EDECED"/>
<path d="M32.7994 30.175C32.2501 29.7659 32.2079 28.913 31.4304 27.5214C30.9082 26.5871 30.0096 26.0554 29.6674 25.7654C28.9924 25.1925 28.6537 25.282 28.6537 25.282C28.6537 25.282 29.1774 25.4895 29.1392 26.269C29.1281 26.4932 29.5216 27.3696 28.019 29.584C26.7158 31.5048 22.6831 38.185 22.3535 40.9416C22.0238 38.185 17.771 31.4807 16.4337 29.584C14.8953 27.4018 15.2491 26.5414 15.3134 26.269C15.4466 25.7061 15.8502 25.3438 15.8502 25.3438C15.8502 25.3438 15.4602 25.1925 14.7852 25.7654C14.443 26.0559 13.5444 26.5876 13.0222 27.5214C12.2447 28.9125 12.2025 29.7659 11.6527 30.175C11.1034 30.5841 15.9386 30.9022 15.9386 30.9022L12.8925 33.2015C12.8925 33.2015 16.305 37.104 18.6128 38.7861C19.3275 39.3067 20.0316 40.2697 20.6206 40.929C21.2996 41.6889 21.8765 42.4579 22.5193 43.0187C23.0686 42.1171 23.152 41.6889 23.831 40.929C24.42 40.2697 25.1241 39.3067 25.8388 38.7861C28.1466 37.104 31.5591 33.2015 31.5591 33.2015L28.513 30.9022C28.513 30.9022 33.3487 30.5841 32.7989 30.175H32.7994Z" fill="#E0E0E0"/>
<path d="M28.3547 24.4894C28.2241 24.4381 28.1009 24.4522 27.9989 24.5336C28.0079 24.5417 28.0165 24.5568 28.0245 24.5668C28.3311 24.9684 28.4085 25.0161 28.6538 25.282C28.7744 25.4126 28.9337 25.5428 29.0478 25.7046C32.4773 27.9451 31.8501 33.2688 31.4717 36.237C31.3817 36.9426 31.3109 37.5 31.3109 37.8845C31.3109 38.0925 31.4792 38.2609 31.6873 38.2609C31.8953 38.2609 32.0637 38.0925 32.0637 37.8845C32.0637 37.5482 32.1356 36.9849 32.219 36.3325C32.6572 32.8964 33.4724 26.5002 28.3552 24.4899L28.3547 24.4894Z" fill="black"/>
<path d="M31.4697 40.3928C32.1738 40.3928 32.7447 39.822 32.7447 39.1178C32.7447 38.4136 32.1738 37.8428 31.4697 37.8428C30.7655 37.8428 30.1946 38.4136 30.1946 39.1178C30.1946 39.822 30.7655 40.3928 31.4697 40.3928Z" fill="#A4A3A3"/>
<path d="M32.3582 39.1178C32.3582 39.6083 31.9607 40.0063 31.4697 40.0063C30.9786 40.0063 30.5811 39.6088 30.5811 39.1178C30.5811 38.6268 30.9786 38.2292 31.4697 38.2292C31.9607 38.2292 32.3582 38.6268 32.3582 39.1178Z" fill="white"/>
<path d="M16.5468 24.5713C16.5493 24.5648 16.6056 24.4879 16.6086 24.4819C16.5166 24.4331 16.3538 24.4899 16.2488 24.5296C15.5346 24.798 11.9809 26.5615 12.1664 34.9344C12.1709 35.1419 12.3433 35.3068 12.5508 35.3022C12.5584 35.3022 12.5659 35.3017 12.5734 35.3012C12.7705 35.2852 12.9232 35.1183 12.9187 34.9178C12.7901 29.1085 14.5948 26.4288 15.7105 25.4945C15.9472 25.2664 16.3342 24.8533 16.5473 24.5713H16.5468Z" fill="black"/>
<path d="M10.2033 45.3647C10.2129 45.5467 10.2254 45.7683 10.2586 46H10.5149C10.4792 45.7673 10.4642 45.5386 10.4541 45.3451L10.4466 45.1999C10.3048 42.4634 10.2199 40.92 10.1948 40.6119C10.1893 40.5426 10.1289 40.4913 10.0596 40.4968C9.99023 40.5024 9.93897 40.5627 9.945 40.632C9.96963 40.9376 10.0546 42.479 10.1963 45.213L10.2038 45.3642L10.2033 45.3647Z" fill="#E5E5E4"/>
<path d="M16.7272 44.835C16.7639 45.1667 16.8071 45.5994 16.7312 46.0005H16.991C17.0599 45.5743 17.0127 45.1341 16.977 44.8139L16.9599 44.6632C16.6578 41.9422 16.492 40.4074 16.4674 40.1018C16.4618 40.033 16.401 39.9812 16.3322 39.9872C16.2628 39.9928 16.2116 40.0531 16.2171 40.1224C16.2422 40.4305 16.4081 41.9674 16.7106 44.6908L16.7267 44.8355L16.7272 44.835Z" fill="#E5E5E4"/>
<path d="M16.493 40.0998L16.1412 40.1284C16.0326 40.1375 15.9382 40.0576 15.9266 39.949C15.7381 38.1875 14.8536 35.4927 12.6031 35.6762C10.3973 35.8556 10.43 39.4731 10.4737 40.3868C10.4792 40.5003 10.3933 40.5963 10.2802 40.6054L9.95001 40.632C9.8314 40.6416 9.72837 40.5521 9.72184 40.4335C9.69521 39.9204 9.67561 38.7328 9.96308 37.5889C10.4827 35.5189 11.6522 34.9982 12.5423 34.9258C15.0406 34.7223 16.4056 37.2361 16.6764 39.8807C16.688 39.9917 16.6036 40.0903 16.4925 40.0993L16.493 40.0998Z" fill="black"/>
<path d="M36.1139 46C35.942 44.9913 36.135 39.2479 36.3401 37.3809C36.6934 34.1614 37.0437 31.15 38.0639 29.8559C38.3378 29.4578 39.9651 30.9892 40.142 31.1646C41.7347 32.7371 42.3177 35.7259 43.7877 41.315C44.1928 42.8549 44.4566 44.4219 44.5325 46.0005H36.1139V46Z" fill="#E2E2E2"/>
</svg>
