<svg viewBox="0 0 28 28" fill="none" xmlns="http://www.w3.org/2000/svg">
<path d="M27.4453 15.8887C27.4453 16.471 27.5042 17.0604 27.4326 17.6336C27.3 18.697 26.3183 19.5354 25.2467 19.5685C24.705 19.5847 24.1628 19.5847 23.6212 19.571C23.4271 19.5664 23.3392 19.6325 23.2726 19.8083C22.6669 21.4104 21.76 22.8214 20.5613 24.044C19.2956 25.3356 17.8317 26.3158 16.1056 26.8935C14.3572 27.4788 12.6636 27.301 11.0112 26.5531C8.64745 25.4835 6.8543 23.7808 5.56368 21.5476C5.23595 20.981 4.98849 20.3667 4.71919 19.7682C4.65364 19.6223 4.58403 19.5695 4.42296 19.572C3.86454 19.5812 3.3051 19.5807 2.74668 19.568C1.59477 19.5425 0.531787 18.478 0.515528 17.3231C0.502316 16.3749 0.493678 15.4258 0.518576 14.4781C0.539917 13.6773 0.90373 13.0341 1.56835 12.5829C1.73145 12.4721 1.78176 12.3567 1.78277 12.1733C1.79243 10.5926 2.02566 9.04686 2.56985 7.5596C3.62979 4.66281 5.64041 2.7091 8.51738 1.63697C9.64337 1.21726 10.8125 0.983527 12.0087 0.861579C13.3867 0.721338 14.7637 0.72083 16.1376 0.872757C18.3225 1.11462 20.3774 1.73605 22.1629 3.07545C23.9743 4.43416 25.1054 6.25068 25.7106 8.41171C26.051 9.62865 26.2187 10.872 26.2223 12.1357C26.2228 12.3466 26.2817 12.4802 26.4672 12.6083C27.1369 13.0712 27.4732 13.7282 27.492 14.5416C27.5022 14.9903 27.4941 15.439 27.4941 15.8882H27.4453V15.8887ZM17.7133 13.0356C17.3988 12.8694 17.1584 12.7048 16.8927 12.6083C16.0634 12.3069 15.224 12.0326 14.3897 11.7455C12.7835 11.1931 11.469 10.2541 10.5234 8.82583C10.4437 8.70489 10.3456 8.59565 10.2196 8.43457C10.1977 8.60327 10.1774 8.70235 10.1733 8.80245C10.1322 9.76991 9.88269 10.6794 9.40506 11.5224C8.5875 12.965 7.4239 13.9558 5.76185 14.2942C5.6963 14.3074 5.60586 14.4202 5.60332 14.4893C5.56114 15.6666 5.59417 16.8389 5.89853 17.9867C6.01438 18.4237 6.08247 18.884 6.47322 19.1914C6.70543 19.3744 6.92087 19.5817 7.16578 19.7448C8.48841 20.6248 9.98838 20.8982 11.5366 20.9917C11.5956 20.9953 11.6753 20.9409 11.717 20.8901C12.531 19.8957 14.3363 19.7514 15.4207 20.5359C16.3114 21.1802 16.2957 22.2264 15.3917 22.8575C14.8038 23.2681 14.1326 23.3921 13.4375 23.3189C12.7226 23.2437 12.0767 22.9957 11.6418 22.3662C11.6062 22.3143 11.5219 22.2783 11.4553 22.2686C11.2632 22.2417 11.0691 22.231 10.8756 22.2153C9.75058 22.1233 8.66168 21.8824 7.62055 21.4394C7.57787 21.4211 7.53112 21.4124 7.44626 21.3875C7.49911 21.4724 7.52654 21.5222 7.55906 21.5679C8.61138 23.0293 9.93858 24.1705 11.5666 24.9433C12.8135 25.5353 14.1006 25.7899 15.4608 25.3229C17.9389 24.4723 19.7646 22.8458 21.0654 20.6071C22.1868 18.6767 22.5267 16.568 22.4053 14.3653C22.358 13.5076 22.3291 13.4634 21.574 13.0112C20.1543 12.1601 18.5827 11.8161 16.9643 11.6088C17.1102 11.8415 17.2616 12.0554 17.383 12.2851C17.5029 12.5127 17.5919 12.7566 17.7133 13.0361V13.0356ZM3.15774 12.155C3.45601 12.155 3.67602 12.1418 3.89299 12.1591C4.08912 12.1748 4.14552 12.1037 4.17703 11.9121C4.4067 10.5255 4.80455 9.1932 5.48594 7.95339C6.38582 6.31674 7.66729 5.09319 9.37559 4.32491C10.4071 3.861 11.4904 3.60643 12.6148 3.50125C14.1575 3.35746 15.6859 3.41792 17.1884 3.81781C19.8616 4.52918 21.7503 6.16278 22.8819 8.68355C23.3544 9.73587 23.6557 10.8349 23.8427 11.9696C23.8539 12.0361 23.9225 12.1428 23.9698 12.1454C24.2436 12.1621 24.519 12.1535 24.8625 12.1535C24.736 11.2424 24.6598 10.3746 24.4896 9.525C23.8392 6.28066 21.9942 4.0363 18.8434 2.92505C17.5934 2.484 16.2962 2.29498 14.9751 2.22435C13.1819 2.12832 11.4116 2.25789 9.683 2.75788C7.76231 3.31325 6.14446 4.32847 4.9763 5.98697C4.1816 7.1155 3.70092 8.37817 3.46617 9.72926C3.32898 10.5163 3.2614 11.3161 3.15673 12.1545L3.15774 12.155Z" fill="white"/>
<path d="M17.5015 16.7215C16.7545 16.7174 16.1178 16.0782 16.1138 15.3287C16.1102 14.5828 16.7459 13.9451 17.502 13.9365C18.2519 13.9283 18.9125 14.5919 18.8998 15.3414C18.8871 16.095 18.2484 16.7255 17.5009 16.7215H17.5015Z" fill="white"/>
<path d="M10.4889 16.7215C9.74352 16.7149 9.09567 16.0614 9.10583 15.3252C9.1165 14.5615 9.76689 13.9238 10.5209 13.938C11.2664 13.9522 11.8883 14.5787 11.8924 15.3196C11.8964 16.0772 11.245 16.7276 10.4889 16.721V16.7215Z" fill="white"/>
</svg>
