<svg width="61" height="33" viewBox="0 0 61 33" fill="none" xmlns="http://www.w3.org/2000/svg">
<g clip-path="url(#clip0_3_1625)">
<path d="M4.7891 11.0309C6.39742 9.07065 7.9328 8.08752 9.39401 8.08752C10.1469 8.08752 10.7922 8.27796 11.3312 8.65645C11.8726 9.03375 12.3041 9.6598 12.6218 10.5287C12.8418 11.1345 12.9494 12.0652 12.9494 13.3173V19.2458C12.9494 20.1218 13.0211 20.7205 13.1645 21.0312C13.272 21.2847 13.4513 21.4811 13.6973 21.6263C13.9384 21.7655 14.3945 21.8381 15.0547 21.8381V22.3797H8.25298V21.8381H8.53979C9.18138 21.8381 9.63137 21.7346 9.88232 21.5382C10.1395 21.3406 10.3175 21.0526 10.4164 20.6681C10.4572 20.5182 10.4757 20.0421 10.4757 19.2458V13.5601C10.4757 12.2985 10.3125 11.382 9.98987 10.8084C9.66104 10.2394 9.11215 9.95498 8.34446 9.95498C7.15646 9.95498 5.96721 10.612 4.79033 11.926V19.2458C4.79033 20.1825 4.84102 20.7622 4.95475 20.9835C5.09321 21.2799 5.28606 21.4965 5.5333 21.631C5.77931 21.7655 6.27627 21.8393 7.02418 21.8393V22.3809H0.226213V21.8393H0.52785C1.22508 21.8393 1.70226 21.6572 1.94703 21.3001C2.18686 20.9383 2.31171 20.2551 2.31171 19.2458V14.0886C2.31171 12.4235 2.27586 11.4094 2.20045 11.0464C2.12752 10.6798 2.01008 10.4311 1.85555 10.3025C1.70226 10.1728 1.4921 10.1049 1.23126 10.1049C0.954346 10.1049 0.616858 10.1835 0.227449 10.3335L0.0012207 9.78478L4.14503 8.08871H4.79033V11.0321L4.7891 11.0309Z" fill="#EC8123"/>
<path d="M20.5348 11.0464C21.5386 10.0323 22.1271 9.45271 22.3063 9.30393C22.7575 8.91592 23.2434 8.62074 23.7613 8.40888C24.2855 8.19583 24.7973 8.08871 25.3091 8.08871C26.1695 8.08871 26.9125 8.34223 27.5318 8.84926C28.1524 9.35035 28.5678 10.0847 28.7779 11.0476C29.8077 9.83119 30.6768 9.03613 31.39 8.65764C32.0959 8.27915 32.829 8.08871 33.5769 8.08871C34.3248 8.08871 34.9553 8.27915 35.5227 8.65764C36.0852 9.03494 36.5315 9.65623 36.8653 10.5144C37.0853 11.0988 37.1916 12.02 37.1916 13.2709V19.2458C37.1916 20.1159 37.2584 20.711 37.3882 21.0312C37.4896 21.2525 37.6738 21.4453 37.9445 21.6001C38.2177 21.7548 38.6528 21.8381 39.2672 21.8381V22.3797H32.4792V21.8381H32.7672C33.3556 21.8381 33.8167 21.7191 34.1493 21.4858C34.3805 21.3251 34.5436 21.0657 34.6413 20.7157C34.6821 20.5444 34.7031 20.054 34.7031 19.2458V13.2709C34.7031 12.139 34.5708 11.3416 34.2989 10.8762C33.9107 10.2287 33.2852 9.90856 32.4235 9.90856C31.8907 9.90856 31.3579 10.0431 30.8263 10.3061C30.2886 10.5751 29.6433 11.0726 28.8805 11.8022L28.8496 11.9676L28.8805 12.6187V19.2458C28.8805 20.1932 28.9362 20.7824 29.0388 21.0169C29.1463 21.249 29.3416 21.4453 29.6334 21.6013C29.9202 21.756 30.4171 21.8393 31.1193 21.8393V22.3809H24.1681V21.8393C24.932 21.8393 25.4537 21.7453 25.7418 21.5644C26.0236 21.3835 26.2227 21.1085 26.3314 20.7467C26.3821 20.5705 26.4068 20.073 26.4068 19.2458V13.2709C26.4068 12.139 26.2437 11.3261 25.9099 10.8345C25.4698 10.1871 24.8554 9.86095 24.0667 9.86095C23.5227 9.86095 22.9899 10.0062 22.4571 10.3013C21.6264 10.7453 20.9873 11.2476 20.536 11.8022V19.2458C20.536 20.1528 20.6028 20.7467 20.7252 21.0169C20.8488 21.2894 21.038 21.4977 21.279 21.631C21.5263 21.7655 22.0232 21.8393 22.7761 21.8393V22.3809H15.9781V21.8393C16.6086 21.8393 17.0487 21.7667 17.2996 21.631C17.5456 21.4965 17.7397 21.2799 17.8683 20.98C17.9968 20.6788 18.0636 20.1052 18.0636 19.2458V13.9386C18.0636 12.4116 18.0179 11.4297 17.9301 10.9845C17.8584 10.6477 17.7447 10.4204 17.5963 10.2966C17.4492 10.1668 17.2428 10.1038 16.9819 10.1038C16.7001 10.1038 16.3663 10.1823 15.9769 10.3323L15.7531 9.78359L19.892 8.08752H20.536V11.0464H20.5348Z" fill="#EC8123"/>
<path d="M46.9553 19.1221L49.9111 12.6187L49.1323 10.5751C48.8912 9.97047 48.5784 9.55151 48.1853 9.31823C47.964 9.17302 47.5549 9.0909 46.9553 9.05995V8.49579H53.5023V9.05995C52.7804 9.0909 52.2686 9.21944 51.9706 9.45272C51.7716 9.6134 51.669 9.87168 51.669 10.224C51.669 10.4251 51.7098 10.6334 51.7926 10.8441L54.9116 18.8221L57.8056 11.1345C58.0046 10.5906 58.1085 10.1561 58.1085 9.83002C58.1085 9.63959 58.0108 9.4682 57.8155 9.31823C57.6214 9.1635 57.2369 9.08019 56.6695 9.05995V8.49579H61.0012V9.05995C60.1309 9.18969 59.4893 9.78361 59.0814 10.8441L54.4913 22.8058H53.8769L50.4402 13.9375L46.6079 22.5011L46.9565 19.1221H46.9553Z" fill="#EC8123"/>
<path fill-rule="evenodd" clip-rule="evenodd" d="M40.6061 9.5158C40.8471 5.4631 42.2638 2.52921 44.1071 0C41.443 5.5488 41.4109 10.4608 44.9403 14.5778C48.7379 19.8362 50.4773 24.2888 49.471 33C49.7158 27.0775 46.4175 22.1262 43.1465 17.7069C41.4529 15.1182 40.6061 12.3878 40.6061 9.5158Z" fill="#6E6E72"/>
</g>
<defs>
<clipPath id="clip0_3_1625">
<rect width="61" height="33" fill="white"/>
</clipPath>
</defs>
</svg>
